<svg width="24" height="24" viewBox="0 0 24 24" fill="none" xmlns="http://www.w3.org/2000/svg">
<g clip-path="url(#clip0_1027_7)">
<path d="M12 0C9.62663 0 7.30655 0.703788 5.33316 2.02236C3.35977 3.34094 1.8217 5.21509 0.913451 7.4078C0.00519943 9.60051 -0.232441 12.0133 0.230582 14.3411C0.693605 16.6689 1.83649 18.8071 3.51472 20.4853C5.19295 22.1635 7.33115 23.3064 9.65892 23.7694C11.9867 24.2324 14.3995 23.9948 16.5922 23.0866C18.7849 22.1783 20.6591 20.6402 21.9776 18.6668C23.2962 16.6935 24 14.3734 24 12C24 8.8174 22.7357 5.76516 20.4853 3.51472C18.2348 1.26428 15.1826 0 12 0ZM12 23C9.82441 23 7.69767 22.3549 5.88873 21.1462C4.07979 19.9375 2.66989 18.2195 1.83733 16.2095C1.00477 14.1995 0.78693 11.9878 1.21137 9.85401C1.6358 7.72022 2.68345 5.7602 4.22183 4.22183C5.76021 2.68345 7.72022 1.6358 9.85401 1.21136C11.9878 0.786925 14.1995 1.00476 16.2095 1.83733C18.2195 2.66989 19.9375 4.07979 21.1462 5.88873C22.3549 7.69767 23 9.82441 23 12C23 14.9174 21.8411 17.7153 19.7782 19.7782C17.7153 21.8411 14.9174 23 12 23Z" fill="white"/>
<path d="M12 2C10.0222 2 8.08879 2.58649 6.4443 3.6853C4.79981 4.78412 3.51809 6.3459 2.76121 8.17317C2.00433 10.0004 1.8063 12.0111 2.19215 13.9509C2.578 15.8907 3.53041 17.6725 4.92894 19.0711C6.32746 20.4696 8.10929 21.422 10.0491 21.8079C11.9889 22.1937 13.9996 21.9957 15.8268 21.2388C17.6541 20.4819 19.2159 19.2002 20.3147 17.5557C21.4135 15.9112 22 13.9778 22 12C22 10.6868 21.7413 9.38642 21.2388 8.17317C20.7363 6.95991 19.9997 5.85752 19.0711 4.92893C18.1425 4.00035 17.0401 3.26375 15.8268 2.7612C14.6136 2.25866 13.3132 2 12 2ZM12.5 21V20C12.5 19.8674 12.4473 19.7402 12.3536 19.6464C12.2598 19.5527 12.1326 19.5 12 19.5C11.8674 19.5 11.7402 19.5527 11.6465 19.6464C11.5527 19.7402 11.5 19.8674 11.5 20V21C9.28906 20.874 7.20218 19.9374 5.63858 18.3692C4.07498 16.8009 3.14445 14.7113 3.025 12.5H4C4.13261 12.5 4.25979 12.4473 4.35356 12.3536C4.44733 12.2598 4.5 12.1326 4.5 12C4.5 11.8674 4.44733 11.7402 4.35356 11.6464C4.25979 11.5527 4.13261 11.5 4 11.5H3.025C3.15039 9.29312 4.08354 7.20956 5.64655 5.64655C7.20957 4.08353 9.29313 3.15038 11.5 3.025V4C11.5 4.13261 11.5527 4.25979 11.6465 4.35355C11.7402 4.44732 11.8674 4.5 12 4.5C12.1326 4.5 12.2598 4.44732 12.3536 4.35355C12.4473 4.25979 12.5 4.13261 12.5 4V3.025C14.7113 3.14444 16.8009 4.07497 18.3692 5.63857C19.9374 7.20217 20.874 9.28906 21 11.5H20C19.8674 11.5 19.7402 11.5527 19.6465 11.6464C19.5527 11.7402 19.5 11.8674 19.5 12C19.5 12.1326 19.5527 12.2598 19.6465 12.3536C19.7402 12.4473 19.8674 12.5 20 12.5H21C20.88 14.7154 19.9459 16.8083 18.3771 18.3771C16.8083 19.9459 14.7154 20.88 12.5 21Z" fill="white"/>
<path d="M15.9999 7.31C9.85488 10.385 10.2249 10.15 10.1199 10.36L7.30988 16C7.24905 16.096 7.22272 16.2098 7.23521 16.3227C7.24771 16.4356 7.29829 16.5409 7.37862 16.6213C7.45896 16.7016 7.56426 16.7522 7.67719 16.7647C7.79011 16.7772 7.90392 16.7508 7.99988 16.69C14.1449 13.615 13.7749 13.85 13.8799 13.64L16.6899 8C16.7507 7.90405 16.777 7.79023 16.7645 7.67731C16.7521 7.56439 16.7015 7.45908 16.6211 7.37875C16.5408 7.29841 16.4355 7.24783 16.3226 7.23533C16.2096 7.22284 16.0958 7.24917 15.9999 7.31ZM12.9999 13.04L8.83488 15.125L10.9199 10.96L15.0849 8.875L12.9999 13.04Z" fill="white"/>
<path d="M12 12.5C12.1326 12.5 12.2598 12.4473 12.3536 12.3536C12.4473 12.2598 12.5 12.1326 12.5 12C12.5 11.9011 12.4707 11.8044 12.4157 11.7222C12.3608 11.64 12.2827 11.5759 12.1913 11.5381C12.1 11.5002 11.9994 11.4903 11.9025 11.5096C11.8055 11.5289 11.7164 11.5765 11.6464 11.6464C11.5765 11.7164 11.5289 11.8055 11.5096 11.9025C11.4903 11.9994 11.5002 12.1 11.5381 12.1913C11.5759 12.2827 11.64 12.3608 11.7222 12.4157C11.8044 12.4707 11.9011 12.5 12 12.5Z" fill="white"/>
</g>
<defs>
<clipPath id="clip0_1027_7">
<rect width="24" height="24" fill="white"/>
</clipPath>
</defs>
</svg>
