<svg width="24" height="26" viewBox="0 0 24 26" fill="none" xmlns="http://www.w3.org/2000/svg">
<path d="M16.6172 5.57031H18.0234C19.5767 5.57031 20.8359 6.82952 20.8359 8.38281V21.8359C20.8359 23.3892 19.5767 24.6484 18.0234 24.6484H4.57031C3.79369 24.6484 3.16406 24.0188 3.16406 23.2422V6.97656C3.16406 6.19994 3.79369 5.57031 4.57031 5.57031H5.97656" stroke="white" stroke-miterlimit="10" stroke-linecap="round" stroke-linejoin="round"/>
<path d="M19.4297 12.6016V21.8359C19.4297 22.6126 18.8001 23.2422 18.0234 23.2422H4.57031C3.79369 23.2422 3.16406 22.6126 3.16406 21.8359" stroke="white" stroke-miterlimit="10" stroke-linecap="round" stroke-linejoin="round"/>
<path d="M16.6172 6.97656H18.0234C18.8001 6.97656 19.4297 7.60619 19.4297 8.38281V11.1953" stroke="white" stroke-miterlimit="10" stroke-linecap="round" stroke-linejoin="round"/>
<path d="M3.16406 8.38281C3.16406 7.60619 3.79369 6.97656 4.57031 6.97656H5.97656" stroke="white" stroke-miterlimit="10" stroke-linecap="round" stroke-linejoin="round"/>
<path d="M5.97656 8.38281H4.57031V11.1953H7.78125C8.23766 11.1953 8.68175 11.3433 9.04687 11.6172L10.0312 12.3555C10.7812 12.918 11.8125 12.918 12.5625 12.3555L13.5469 11.6172C13.912 11.3433 14.3561 11.1953 14.8125 11.1953H18.0234V8.38281H16.6172" stroke="white" stroke-miterlimit="10" stroke-linecap="round" stroke-linejoin="round"/>
<path d="M16.6172 11.1953V2.75781C16.6172 1.98119 15.9876 1.35156 15.2109 1.35156H7.38281C6.60614 1.35156 5.97656 1.98119 5.97656 2.75781V11.1953" stroke="white" stroke-miterlimit="10" stroke-linecap="round" stroke-linejoin="round"/>
<path d="M8.17969 1.35145V11.2334" stroke="white" stroke-miterlimit="10" stroke-linecap="round" stroke-linejoin="round"/>
<path d="M10.2891 12.5208V1.35166" stroke="white" stroke-miterlimit="10" stroke-linecap="round" stroke-linejoin="round"/>
<path d="M5.97656 9.78906H4.57031" stroke="white" stroke-miterlimit="10" stroke-linecap="round" stroke-linejoin="round"/>
<path d="M18.0234 9.78906H16.6172" stroke="white" stroke-miterlimit="10" stroke-linecap="round" stroke-linejoin="round"/>
</svg>
