<svg width="24" height="24" viewBox="0 0 24 24" fill="none" xmlns="http://www.w3.org/2000/svg">
<path d="M9.75347 17.4439V16.9439H9.25347H7.94702V9.52191C7.94702 8.0222 8.91772 6.978 9.95393 6.978H14.083C15.13 6.978 16.1285 8.03547 16.1636 9.48869V16.9048H14.8572H14.3572V17.4048V22.7512C14.3572 23.1761 14.0287 23.5 13.6774 23.5H10.4332C10.0722 23.5 9.75347 23.2047 9.75347 22.7512V17.4439ZM14.3203 3.04386C14.3203 4.47733 13.2602 5.54873 12.0184 5.54873C10.7808 5.54873 9.71661 4.44267 9.71661 3.04386C9.71661 1.6538 10.7726 0.578003 12.0184 0.578003C13.2643 0.578003 14.3203 1.65379 14.3203 3.04386Z" stroke="white"/>
<path d="M22.3573 1.52195C22.3573 2.11354 21.911 2.5439 21.4195 2.5439C20.928 2.5439 20.4817 2.11354 20.4817 1.52195C20.4817 0.930363 20.928 0.5 21.4195 0.5C21.911 0.5 22.3573 0.930363 22.3573 1.52195Z" stroke="white"/>
<path d="M20.7765 22.361C20.7765 21.76 21.2345 21.339 21.7143 21.339C22.1732 21.339 22.62 21.7397 22.652 22.3716C22.6466 22.967 22.1912 23.3829 21.7143 23.3829C21.2138 23.3829 20.7765 22.9401 20.7765 22.361ZM21.6244 11.9415C21.6244 11.3404 22.0824 10.9195 22.5622 10.9195C23.0626 10.9195 23.5 11.3623 23.5 11.9415C23.5 12.5425 23.0419 12.9634 22.5622 12.9634C22.0617 12.9634 21.6244 12.5206 21.6244 11.9415ZM1.38477 22.361C1.38477 21.76 1.84279 21.339 2.32255 21.339C2.83105 21.339 3.26034 21.7514 3.26034 22.361C3.26034 22.962 2.80232 23.3829 2.32255 23.3829C1.8221 23.3829 1.38477 22.9401 1.38477 22.361Z" stroke="white"/>
<path d="M3.55526 1.52195C3.55526 2.11354 3.10898 2.5439 2.61748 2.5439C2.12597 2.5439 1.67969 2.11354 1.67969 1.52195C1.67969 0.930363 2.12597 0.5 2.61748 0.5C3.10898 0.5 3.55526 0.930363 3.55526 1.52195Z" stroke="white"/>
<path d="M1.43779 10.9196C1.93824 10.9196 2.37558 11.3624 2.37558 11.9415C2.37558 12.5207 1.93824 12.9635 1.43779 12.9635C0.937336 12.9635 0.5 12.5207 0.5 11.9415C0.5 11.3405 0.958024 10.9196 1.43779 10.9196Z" stroke="white"/>
</svg>
