<svg width="24" height="24" viewBox="0 0 24 24" fill="none" xmlns="http://www.w3.org/2000/svg">
<path d="M12.3943 12.4347L14.4775 13.9346C14.514 13.9609 14.5555 13.98 14.5997 13.9908C14.6438 14.0017 14.6898 14.0041 14.7349 13.9979C14.7801 13.9917 14.8235 13.9771 14.8627 13.9547C14.902 13.9324 14.9362 13.9029 14.9636 13.8679C14.991 13.8329 15.0109 13.7931 15.0222 13.7507C15.0335 13.7083 15.036 13.6641 15.0296 13.6208C15.0231 13.5775 15.0078 13.5358 14.9846 13.4981C14.9614 13.4605 14.9306 13.4276 14.8942 13.4013L12.9654 11.9997V9.16656C12.9654 9.07816 12.9288 8.99338 12.8637 8.93088C12.7986 8.86837 12.7103 8.83325 12.6182 8.83325C12.5261 8.83325 12.4378 8.86837 12.3727 8.93088C12.3076 8.99338 12.271 9.07816 12.271 9.16656V12.1664C12.271 12.277 12.3193 12.3767 12.3943 12.4347Z" fill="white"/>
<path d="M12.7919 7C10.2505 7 8.08028 8.76089 7.65668 11.1664L7.52474 10.9781C7.47318 10.9047 7.39336 10.854 7.30285 10.8371C7.21234 10.8203 7.11855 10.8386 7.04212 10.8881C6.96569 10.9376 6.91288 11.0142 6.8953 11.1011C6.87772 11.188 6.89681 11.278 6.94838 11.3514L7.64279 12.3513C7.67099 12.3925 7.70835 12.4272 7.75218 12.4528C7.79601 12.4784 7.84521 12.4944 7.89626 12.4996H7.93098C7.97651 12.4995 8.02156 12.4907 8.06356 12.4739C8.10556 12.457 8.14369 12.4323 8.17576 12.4013L9.04378 11.568C9.10576 11.5049 9.13968 11.421 9.13833 11.3343C9.13698 11.2475 9.10048 11.1647 9.03657 11.1033C8.97266 11.042 8.88636 11.0069 8.79599 11.0056C8.70561 11.0043 8.61827 11.0369 8.55248 11.0964L8.33721 11.3047C8.73702 8.94254 11.0559 7.33898 13.5163 7.72279C15.9768 8.1066 17.6476 10.3325 17.2478 12.6946C16.8928 14.7922 15.0055 16.3331 12.7919 16.3327C12.104 16.3447 11.4232 16.197 10.8076 15.9022C10.1919 15.6074 9.65944 15.1742 9.25558 14.6395C9.22913 14.6038 9.19563 14.5735 9.15697 14.5503C9.11832 14.527 9.07528 14.5113 9.0303 14.504C8.98532 14.4968 8.93929 14.4981 8.89484 14.5079C8.85039 14.5177 8.80838 14.5358 8.77122 14.5612C8.73406 14.5866 8.70247 14.6187 8.67826 14.6558C8.65405 14.6929 8.63769 14.7343 8.63011 14.7774C8.62253 14.8206 8.62389 14.8648 8.6341 14.9075C8.64431 14.9502 8.66318 14.9905 8.68963 15.0262C9.15733 15.6479 9.77455 16.152 10.4888 16.4955C11.203 16.8391 11.9931 17.0119 12.7919 16.9994C15.6683 16.9994 18 14.761 18 11.9997C18 9.23836 15.6683 7 12.7919 7Z" fill="white"/>
<path fill-rule="evenodd" clip-rule="evenodd" d="M18.1112 4.36019C18.1112 4.13834 18.2146 3.92557 18.3987 3.76869C18.5828 3.61182 18.8324 3.52368 19.0927 3.52368C19.7373 3.5231 20.3758 3.63088 20.9715 3.84087C21.5671 4.05085 22.1084 4.35891 22.5642 4.74741C23.02 5.13591 23.3815 5.59722 23.6279 6.10494C23.8742 6.61265 24.0007 7.1568 24 7.70622V11.4092C24 11.631 23.8966 11.8438 23.7125 12.0007C23.5285 12.1575 23.2788 12.2457 23.0185 12.2457C22.7582 12.2457 22.5086 12.1575 22.3245 12.0007C22.1405 11.8438 22.0371 11.631 22.0371 11.4092V7.70622C22.0378 7.3765 21.9621 7.04991 21.8144 6.74517C21.6666 6.44044 21.4498 6.16356 21.1762 5.93041C20.9027 5.69726 20.5778 5.51243 20.2203 5.38653C19.8627 5.26062 19.4795 5.19611 19.0927 5.1967C18.8324 5.1967 18.5828 5.10857 18.3987 4.95169C18.2146 4.79482 18.1112 4.58205 18.1112 4.36019ZM0 4.36019C0 4.13834 0.103404 3.92557 0.287463 3.76869C0.471523 3.61182 0.721161 3.52368 0.981461 3.52368H13.2955C13.5558 3.52368 13.8055 3.61182 13.9895 3.76869C14.1736 3.92557 14.277 4.13834 14.277 4.36019C14.277 4.58205 14.1736 4.79482 13.9895 4.95169C13.8055 5.10857 13.5558 5.1967 13.2955 5.1967H0.981461C0.721161 5.1967 0.471523 5.10857 0.287463 4.95169C0.103404 4.79482 0 4.58205 0 4.36019Z" fill="white"/>
<path fill-rule="evenodd" clip-rule="evenodd" d="M5.81025 0.244639C5.99405 0.401485 6.09728 0.614096 6.09728 0.835771C6.09728 1.05745 5.99405 1.27006 5.81025 1.4269L2.3686 4.36025L5.81025 7.29361C5.90668 7.37019 5.98402 7.46254 6.03766 7.56515C6.09131 7.66776 6.12015 7.77853 6.12248 7.89085C6.1248 8.00316 6.10056 8.11473 6.0512 8.21889C6.00184 8.32305 5.92836 8.41767 5.83517 8.4971C5.74197 8.57654 5.63095 8.63916 5.50874 8.68123C5.38654 8.7233 5.25564 8.74396 5.12386 8.74198C4.99207 8.74 4.86211 8.71541 4.74172 8.66969C4.62133 8.62397 4.51297 8.55805 4.42312 8.47587L0.287898 4.95139C0.104103 4.79454 0.000866409 4.58193 0.000866409 4.36025C0.000866409 4.13858 0.104103 3.92597 0.287898 3.76912L4.42312 0.244639C4.60715 0.087989 4.8566 0 5.11669 0C5.37677 0 5.62623 0.087989 5.81025 0.244639ZM0.981464 11.7327C1.24176 11.7327 1.4914 11.8208 1.67546 11.9777C1.85952 12.1346 1.96293 12.3473 1.96293 12.5692V16.2721C1.96224 16.6018 2.03792 16.9284 2.18565 17.2332C2.33337 17.5379 2.55023 17.8148 2.82378 18.0479C3.09733 18.2811 3.42219 18.4659 3.77973 18.5918C4.13727 18.7177 4.52045 18.7822 4.90731 18.7816H23.0185C23.2788 18.7816 23.5285 18.8698 23.7125 19.0266C23.8966 19.1835 24 19.3963 24 19.6181C24 19.84 23.8966 20.0528 23.7125 20.2096C23.5285 20.3665 23.2788 20.4546 23.0185 20.4546H4.90731C4.26268 20.4552 3.62424 20.3475 3.02855 20.1375C2.43286 19.9275 1.89161 19.6194 1.43578 19.2309C0.979961 18.8424 0.618518 18.3811 0.372147 17.8734C0.125775 17.3657 -0.00068591 16.8215 2.79793e-06 16.2721V12.5692C2.79793e-06 12.3473 0.103407 12.1346 0.287466 11.9777C0.471526 11.8208 0.721164 11.7327 0.981464 11.7327Z" fill="white"/>
<path fill-rule="evenodd" clip-rule="evenodd" d="M18.1898 15.5025C18.3738 15.3458 18.6233 15.2578 18.8834 15.2578C19.1435 15.2578 19.3929 15.3458 19.577 15.5025L23.7122 19.0269C23.896 19.1838 23.9992 19.3964 23.9992 19.6181C23.9992 19.8397 23.896 20.0524 23.7122 20.2092L19.577 23.7337C19.4871 23.8159 19.3787 23.8818 19.2584 23.9275C19.138 23.9732 19.008 23.9978 18.8762 23.9998C18.7444 24.0018 18.6135 23.9811 18.4913 23.939C18.3691 23.897 18.2581 23.8343 18.1649 23.7549C18.0717 23.6755 17.9982 23.5809 17.9489 23.4767C17.8995 23.3725 17.8753 23.261 17.8776 23.1487C17.8799 23.0363 17.9088 22.9256 17.9624 22.823C18.016 22.7203 18.0934 22.628 18.1898 22.5514L21.6315 19.6181L18.1898 16.6847C18.006 16.5279 17.9028 16.3153 17.9028 16.0936C17.9028 15.8719 18.006 15.6593 18.1898 15.5025Z" fill="white"/>
</svg>
