<svg width="24" height="24" viewBox="0 0 24 24" fill="none" xmlns="http://www.w3.org/2000/svg">
<path fill-rule="evenodd" clip-rule="evenodd" d="M12.921 0.39762C13.1235 0.165647 13.4097 0.0235887 13.7168 0.00268209C14.024 -0.0182245 14.3268 0.0837319 14.5588 0.286133L23.599 8.16764C23.7781 8.32281 23.9055 8.52912 23.9641 8.75885C24.0226 8.98858 24.0094 9.23072 23.9263 9.45274C23.8432 9.67476 23.6942 9.86602 23.4993 10.0008C23.3043 10.1357 23.0728 10.2076 22.8358 10.2069H1.16419C0.85628 10.2069 0.560981 10.0846 0.343255 9.86678C0.125529 9.64899 0.00321175 9.3536 0.00321175 9.0456C0.00321175 8.7376 0.125529 8.44221 0.343255 8.22442C0.560981 8.00663 0.85628 7.88428 1.16419 7.88428H19.7368L13.034 2.03741C12.8019 1.83513 12.6596 1.54891 12.6384 1.24169C12.6172 0.934477 12.7189 0.629871 12.921 0.39762ZM11.079 23.6024C10.8765 23.8344 10.5903 23.9764 10.2832 23.9973C9.97603 24.0182 9.67319 23.9163 9.4412 23.7139L0.401041 15.8324C0.22187 15.6772 0.0944675 15.4709 0.0359486 15.2412C-0.0225704 15.0114 -0.00940256 14.7693 0.0736833 14.5473C0.156769 14.3252 0.305793 14.134 0.500734 13.9992C0.695675 13.8643 0.927195 13.7924 1.16419 13.7931H22.8358C23.1437 13.7931 23.439 13.9154 23.6567 14.1332C23.8745 14.351 23.9968 14.6464 23.9968 14.9544C23.9968 15.2624 23.8745 15.5578 23.6567 15.7756C23.439 15.9934 23.1437 16.1157 22.8358 16.1157H4.26323L10.966 21.9626C11.1981 22.1649 11.3404 22.4511 11.3616 22.7583C11.3828 23.0655 11.2811 23.3701 11.079 23.6024Z" fill="white"/>
</svg>
