<svg width="24" height="24" viewBox="0 0 24 24" fill="none" xmlns="http://www.w3.org/2000/svg">
<path fill-rule="evenodd" clip-rule="evenodd" d="M22.6667 16.8892H4.88889C4.53527 16.8892 4.19613 17.0296 3.94608 17.2797C3.69603 17.5298 3.55556 17.8689 3.55556 18.2226C3.55556 18.5762 3.69603 18.9154 3.94608 19.1655C4.19613 19.4155 4.53527 19.556 4.88889 19.556H22.6667C23.0203 19.556 23.3594 19.4155 23.6095 19.1655C23.8595 18.9154 24 18.5762 24 18.2226C24 17.8689 23.8595 17.5298 23.6095 17.2797C23.3594 17.0296 23.0203 16.8892 22.6667 16.8892ZM1.33333 7.1107H19.1111C19.4647 7.1107 19.8039 6.97021 20.0539 6.72015C20.304 6.47008 20.4444 6.13092 20.4444 5.77727C20.4444 5.42363 20.304 5.08446 20.0539 4.8344C19.8039 4.58433 19.4647 4.44385 19.1111 4.44385H1.33333C0.979711 4.44385 0.640573 4.58433 0.390524 4.8344C0.140476 5.08446 0 5.42363 0 5.77727C0 6.13092 0.140476 6.47008 0.390524 6.72015C0.640573 6.97021 0.979711 7.1107 1.33333 7.1107Z" fill="white"/>
<path fill-rule="evenodd" clip-rule="evenodd" d="M17.2801 14.7202L20.7805 18.2227L17.2801 21.7251C17.1563 21.8489 17.0582 21.9958 16.9912 22.1574C16.9242 22.3191 16.8898 22.4924 16.8898 22.6674C16.8898 22.8424 16.9242 23.0157 16.9912 23.1774C17.0582 23.339 17.1563 23.4859 17.2801 23.6097C17.4038 23.7334 17.5507 23.8316 17.7123 23.8986C17.874 23.9655 18.0473 24 18.2223 24C18.3973 24 18.5705 23.9655 18.7322 23.8986C18.8939 23.8316 19.0408 23.7334 19.1645 23.6097L23.6089 19.1649C23.7328 19.0413 23.831 18.8944 23.8981 18.7327C23.9651 18.571 23.9996 18.3977 23.9996 18.2227C23.9996 18.0476 23.9651 17.8743 23.8981 17.7126C23.831 17.5509 23.7328 17.404 23.6089 17.2804L19.1645 12.8356C18.9146 12.5857 18.5757 12.4453 18.2223 12.4453C17.8689 12.4453 17.5299 12.5857 17.2801 12.8356C17.0302 13.0855 16.8898 13.4245 16.8898 13.7779C16.8898 14.1313 17.0302 14.4703 17.2801 14.7202ZM6.72005 9.27981L3.21961 5.77735L6.72005 2.27488C6.96994 2.02497 7.11033 1.68602 7.11033 1.3326C7.11033 0.979169 6.96994 0.640218 6.72005 0.390308C6.47016 0.140398 6.13123 0 5.77783 0C5.42443 0 5.0855 0.140398 4.83561 0.390308L0.391163 4.83506C0.267315 4.95874 0.169064 5.10562 0.102029 5.26731C0.034993 5.429 0.000488281 5.60231 0.000488281 5.77735C0.000488281 5.95238 0.034993 6.1257 0.102029 6.28738C0.169064 6.44907 0.267315 6.59595 0.391163 6.71963L4.83561 11.1644C4.95934 11.2881 5.10624 11.3863 5.2679 11.4533C5.42957 11.5202 5.60284 11.5547 5.77783 11.5547C5.95282 11.5547 6.12609 11.5202 6.28776 11.4533C6.44942 11.3863 6.59632 11.2881 6.72005 11.1644C6.84379 11.0406 6.94194 10.8937 7.0089 10.7321C7.07587 10.5704 7.11033 10.3971 7.11033 10.2221C7.11033 10.0471 7.07587 9.87381 7.0089 9.71214C6.94194 9.55046 6.84379 9.40355 6.72005 9.27981Z" fill="white"/>
</svg>
