<svg width="24" height="24" viewBox="0 0 24 24" fill="none" xmlns="http://www.w3.org/2000/svg">
<g clip-path="url(#clip0_1027_49)">
<path d="M22.8408 17.6663C22.6383 17.5104 22.3605 17.3683 21.9915 17.2318C21.3175 16.9827 20.3718 16.7659 19.1805 16.5876L19.0695 17.3294C22.0123 17.7698 22.448 18.2987 22.4959 18.3751C22.4501 18.4483 22.0502 18.9351 19.4289 19.3645C17.419 19.6938 14.7808 19.8751 12 19.8751C9.21923 19.8751 6.58097 19.6938 4.57111 19.3645C1.94981 18.9351 1.54988 18.4483 1.50408 18.3751C1.55203 18.2987 1.98773 17.7698 4.9305 17.3294L4.8195 16.5876C3.62817 16.766 2.68247 16.9827 2.0085 17.2318C1.6972 17.3469 0.75 17.6972 0.75 18.3751V21.0001C0.75 21.4691 1.11244 22.1551 4.2465 22.6955C6.32091 23.0531 9.07448 23.2501 12 23.2501C14.9255 23.2501 17.6791 23.0531 19.7535 22.6955C22.8876 22.1551 23.25 21.4691 23.25 21.0001V18.3751C23.25 18.1138 23.1123 17.8753 22.8408 17.6663ZM11.625 22.4989C10.4587 22.492 9.32156 22.4533 8.25 22.385V20.5117C9.32203 20.579 10.4579 20.6171 11.625 20.6239V22.4989ZM12.375 20.6239C13.5421 20.6171 14.678 20.579 15.75 20.5117V22.385C14.6784 22.4533 13.5413 22.492 12.375 22.4989V20.6239ZM1.5 20.9931V19.296C1.94583 19.5285 2.64881 19.7633 3.75 19.9791V21.8393C1.77202 21.4348 1.51781 21.0276 1.5 20.9931ZM4.5 21.9777V20.1126C5.39592 20.2578 6.40842 20.3741 7.5 20.4591V22.3315C6.43205 22.2471 5.44242 22.1323 4.57111 21.9895C4.54706 21.9855 4.52367 21.9816 4.5 21.9777ZM16.5 22.3316V20.4591C17.5916 20.3742 18.6041 20.2578 19.5 20.1127V21.9777C19.4763 21.9816 19.4529 21.9855 19.4289 21.9895C18.5576 22.1323 17.568 22.2471 16.5 22.3315V22.3316ZM20.25 21.8394V19.9791C21.3512 19.7633 22.0542 19.5285 22.5 19.296V20.9931C22.4822 21.0276 22.228 21.4348 20.25 21.8393V21.8394Z" fill="white"/>
<path d="M6 15.75C5.90054 15.75 5.80516 15.7895 5.73484 15.8598C5.66451 15.9302 5.625 16.0255 5.625 16.125V18.375C5.625 18.4745 5.66451 18.5698 5.73484 18.6402C5.80516 18.7105 5.90054 18.75 6 18.75H7.5C7.59946 18.75 7.69484 18.7105 7.76517 18.6402C7.83549 18.5698 7.875 18.4745 7.875 18.375V16.125C7.875 16.0255 7.83549 15.9302 7.76517 15.8598C7.69484 15.7895 7.59946 15.75 7.5 15.75H6ZM7.125 18H6.375V16.5H7.125V18ZM8.625 15.75H9.375V18.75H8.625V15.75ZM12 15.75H10.5C10.4005 15.75 10.3052 15.7895 10.2348 15.8598C10.1645 15.9302 10.125 16.0255 10.125 16.125V18.375C10.125 18.4745 10.1645 18.5698 10.2348 18.6402C10.3052 18.7105 10.4005 18.75 10.5 18.75H12C12.0995 18.75 12.1948 18.7105 12.2652 18.6402C12.3355 18.5698 12.375 18.4745 12.375 18.375V16.125C12.375 16.0255 12.3355 15.9302 12.2652 15.8598C12.1948 15.7895 12.0995 15.75 12 15.75ZM11.625 18H10.875V16.5H11.625V18ZM13.125 15.75H13.875V18.75H13.125V15.75ZM15 15.75C14.9005 15.75 14.8052 15.7895 14.7348 15.8598C14.6645 15.9302 14.625 16.0255 14.625 16.125V18.375C14.625 18.4745 14.6645 18.5698 14.7348 18.6402C14.8052 18.7105 14.9005 18.75 15 18.75H16.5C16.5995 18.75 16.6948 18.7105 16.7652 18.6402C16.8355 18.5698 16.875 18.4745 16.875 18.375V16.125C16.875 16.0255 16.8355 15.9302 16.7652 15.8598C16.6948 15.7895 16.5995 15.75 16.5 15.75H15ZM16.125 18H15.375V16.5H16.125V18ZM17.625 15.75H18.375V18.75H17.625V15.75ZM4.125 13.125H10.3198L11.7072 14.8592C11.7423 14.9032 11.7869 14.9386 11.8376 14.963C11.8882 14.9873 11.9438 15 12 15C12.0562 15 12.1118 14.9873 12.1624 14.963C12.2131 14.9386 12.2577 14.9032 12.2928 14.8592L13.6802 13.125H19.875C20.1733 13.1247 20.4592 13.006 20.6701 12.7951C20.881 12.5842 20.9997 12.2983 21 12V1.875C20.9997 1.57673 20.881 1.29078 20.6701 1.07987C20.4592 0.868969 20.1733 0.750335 19.875 0.75H4.125C3.82673 0.750335 3.54078 0.868969 3.32987 1.07987C3.11897 1.29078 3.00033 1.57673 3 1.875V12C3.00033 12.2983 3.11897 12.5842 3.32987 12.7951C3.54078 13.006 3.82673 13.1247 4.125 13.125ZM3.75 1.875C3.75012 1.77558 3.78967 1.68027 3.85997 1.60997C3.93027 1.53967 4.02558 1.50012 4.125 1.5H19.875C19.9744 1.50012 20.0697 1.53967 20.14 1.60997C20.2103 1.68027 20.2499 1.77558 20.25 1.875V12C20.2499 12.0994 20.2103 12.1947 20.14 12.265C20.0697 12.3353 19.9744 12.3749 19.875 12.375H13.5C13.4438 12.375 13.3882 12.3876 13.3375 12.412C13.2869 12.4364 13.2423 12.4718 13.2072 12.5158L12 14.0247L10.7928 12.5158C10.7577 12.4718 10.7131 12.4364 10.6625 12.412C10.6118 12.3876 10.5562 12.375 10.5 12.375H4.125C4.02558 12.3749 3.93027 12.3353 3.85997 12.265C3.78967 12.1947 3.75012 12.0994 3.75 12V1.875Z" fill="white"/>
<path d="M10.8378 11.6956C11.0882 11.8032 11.3591 11.8548 11.6315 11.8467C11.904 11.8387 12.1713 11.7713 12.415 11.6492L18.5427 8.58539C18.619 8.54724 18.68 8.4842 18.7157 8.40669C18.7513 8.32918 18.7595 8.24183 18.7388 8.15906C18.6334 7.73633 18.3687 7.3707 18 7.13859V2.625C18 2.52554 17.9605 2.43016 17.8902 2.35984C17.8198 2.28951 17.7245 2.25 17.625 2.25H8.625C8.52554 2.25 8.43016 2.28951 8.35983 2.35984C8.28951 2.43016 8.25 2.52554 8.25 2.625V7.5H5.25V8.25H9C9.09946 8.24999 9.19484 8.21049 9.26517 8.14017L10.2803 7.125H11.9357C11.8579 7.34419 11.7142 7.53394 11.5243 7.66822C11.3344 7.8025 11.1076 7.87473 10.875 7.875H10.125V8.625H10.8028L12.6108 9.34819C12.6565 9.36648 12.7054 9.37558 12.7546 9.37499C12.8038 9.37439 12.8524 9.36411 12.8977 9.34472L16.7266 7.70377C16.9332 7.61526 17.1646 7.60353 17.3791 7.67071C17.5936 7.73789 17.777 7.87954 17.8962 8.07009L12.0795 10.9785C11.9333 11.0517 11.7729 11.0922 11.6095 11.097C11.446 11.1018 11.2835 11.0708 11.1333 11.0063L9.1477 10.1553C9.10103 10.1353 9.05078 10.125 9 10.125H5.25V10.875H8.92298L10.8378 11.6956ZM12.375 3H13.125V4.5H12.375V3ZM12.7451 8.59416L11.9579 8.27925C12.2026 8.10628 12.4022 7.87713 12.5401 7.61104C12.6779 7.34494 12.7499 7.04967 12.75 6.75C12.75 6.65054 12.7105 6.55516 12.6402 6.48483C12.5698 6.41451 12.4745 6.375 12.375 6.375H10.125C10.0255 6.37501 9.93016 6.41451 9.85983 6.48483L9 7.3447V3H11.625V4.875C11.625 4.97446 11.6645 5.06984 11.7348 5.14016C11.8052 5.21049 11.9005 5.25 12 5.25H13.5C13.5995 5.25 13.6948 5.21049 13.7652 5.14016C13.8355 5.06984 13.875 4.97446 13.875 4.875V3H14.625V7.78842L12.7451 8.59416ZM16.4311 7.01437L15.375 7.467V3H17.25V6.88453C16.9705 6.85915 16.6891 6.90377 16.4311 7.01437Z" fill="white"/>
</g>
<defs>
<clipPath id="clip0_1027_49">
<rect width="24" height="24" fill="white"/>
</clipPath>
</defs>
</svg>
