<svg width="24" height="24" viewBox="0 0 24 24" fill="none" xmlns="http://www.w3.org/2000/svg">
<path fill-rule="evenodd" clip-rule="evenodd" d="M15.7694 22.0214C16.7152 22.0214 17.4846 21.2518 17.4846 20.306V11.8297C17.4846 10.884 16.7152 10.1145 15.7694 10.1145C14.8235 10.1145 14.0541 10.884 14.0541 11.8297V20.306C14.0541 21.2518 14.8237 22.0214 15.7694 22.0214V22.0214ZM14.9916 11.8297C14.9916 11.4008 15.3406 11.052 15.7694 11.052C16.1983 11.052 16.5472 11.4008 16.5472 11.8297V20.306C16.5472 20.7348 16.1983 21.0838 15.7694 21.0838C15.3406 21.0838 14.9916 20.7348 14.9916 20.306V11.8297ZM7.0792 22.0214C8.02514 22.0214 8.79455 21.2518 8.79455 20.306V9.40795C8.79455 8.4622 8.02495 7.6928 7.0792 7.6928C6.1335 7.6928 5.36405 8.4622 5.36405 9.40795V20.306C5.36405 21.2518 6.1335 22.0214 7.0792 22.0214V22.0214ZM6.30155 9.40795C6.30155 8.97914 6.65039 8.6303 7.0792 8.6303C7.50806 8.6303 7.85705 8.97914 7.85705 9.40795V20.306C7.85705 20.7351 7.50806 21.0839 7.0792 21.0839C6.65039 21.0839 6.30155 20.7351 6.30155 20.306V9.40795ZM20.1145 22.0214C21.0602 22.0214 21.8297 21.2518 21.8297 20.306V14.2872C21.8297 13.3414 21.0602 12.572 20.1145 12.572C19.1688 12.572 18.3992 13.3414 18.3992 14.2872V20.306C18.3992 21.2518 19.1688 22.0214 20.1145 22.0214L20.1145 22.0214ZM19.3367 14.2872C19.3367 13.8584 19.6857 13.5095 20.1145 13.5095C20.5433 13.5095 20.8921 13.8584 20.8921 14.2872V20.306C20.8921 20.7349 20.5433 21.0839 20.1145 21.0839C19.6856 21.0839 19.3367 20.7349 19.3367 20.306V14.2872ZM2.73412 22.0214C3.67987 22.0214 4.44947 21.2518 4.44947 20.306V15.7118C4.44947 14.766 3.67987 13.9964 2.73412 13.9964C1.78837 13.9964 1.01878 14.766 1.01878 15.7118V20.306C1.01897 21.2518 1.78837 22.0214 2.73412 22.0214V22.0214ZM1.95647 15.7118C1.95647 15.2829 2.30531 14.9341 2.73412 14.9341C3.16294 14.9341 3.51197 15.2829 3.51197 15.7118V20.306C3.51197 20.7351 3.16298 21.0839 2.73412 21.0839C2.30527 21.0839 1.95647 20.7351 1.95647 20.306V15.7118ZM13.1397 1.71516C13.1397 0.769406 12.3701 0 11.4243 0C10.4786 0 9.70898 0.769406 9.70898 1.71516V20.306C9.70898 21.2518 10.4786 22.0214 11.4243 22.0214C12.3701 22.0214 13.1397 21.2518 13.1397 20.306V1.71516ZM12.202 20.306C12.202 20.7349 11.8531 21.0839 11.4243 21.0839C10.9955 21.0839 10.6465 20.7349 10.6465 20.306V1.71516C10.6465 1.2863 10.9955 0.9375 11.4243 0.9375C11.8532 0.9375 12.202 1.2863 12.202 1.71516V20.306ZM22.3799 23.0625H13.2993C13.0404 23.0625 12.8305 23.2724 12.8305 23.5312C12.8305 23.7901 13.0404 24 13.2993 24H22.3799C22.6386 24 22.8487 23.7901 22.8487 23.5312C22.8487 23.2724 22.6386 23.0625 22.3799 23.0625ZM9.54933 23.0625H0.46875C0.209859 23.0625 0 23.2724 0 23.5312C0 23.7901 0.209859 24 0.46875 24H9.54933C9.80822 24 10.0181 23.7901 10.0181 23.5312C10.0181 23.2724 9.80822 23.0625 9.54933 23.0625ZM11.4243 23.0625C11.1661 23.0625 10.9556 23.2731 10.9556 23.5312C10.9556 23.7894 11.1661 24 11.4243 24C11.6825 24 11.8931 23.7894 11.8931 23.5312C11.8931 23.2731 11.6825 23.0625 11.4243 23.0625Z" fill="white"/>
</svg>
