<svg width="24" height="24" viewBox="0 0 24 24" fill="none" xmlns="http://www.w3.org/2000/svg">
<g clip-path="url(#clip0_1027_75)">
<path d="M20.2511 15.6719C21.7153 14.5619 22.7216 12.5972 22.816 10.7078H22.8912C23.5026 10.7078 24 10.2104 24 9.59902V8.86528C24 8.76583 23.9604 8.67044 23.8901 8.60012C23.8198 8.52979 23.7244 8.49028 23.625 8.49028H17.0146V5.18658C17.0146 5.0899 16.9773 4.99696 16.9104 4.92717L12.3005 0.115594C12.2655 0.0790583 12.2235 0.0499827 12.177 0.0301171C12.1304 0.0102515 12.0804 6.93494e-06 12.0298 0H0.375C0.275544 0 0.180161 0.0395088 0.109835 0.109835C0.0395088 0.180161 0 0.275544 0 0.375L0 23.6251C0 23.7246 0.0395088 23.8199 0.109835 23.8903C0.180161 23.9606 0.275544 24.0001 0.375 24.0001H23.625C23.7245 24.0001 23.8198 23.9606 23.8902 23.8903C23.9605 23.8199 24 23.7246 24 23.6251V22.8914C24 22.28 23.5026 21.7826 22.8913 21.7826H22.816C22.7216 19.8932 21.7153 17.9285 20.2512 16.8185C20.073 16.6835 19.9709 16.4745 19.9709 16.2452C19.9709 16.016 20.073 15.807 20.2511 15.6719ZM23.25 9.59897C23.25 9.79678 23.089 9.9577 22.8913 9.9577H13.0596C12.8618 9.9577 12.7009 9.79673 12.7009 9.59897V9.24023H23.25V9.59897ZM15.761 4.81158H12.2031V1.09791L15.761 4.81158ZM0.75 0.75H11.4531V5.18653C11.4531 5.28599 11.4926 5.38137 11.5629 5.4517C11.6332 5.52202 11.7286 5.56153 11.8281 5.56153H16.2646V8.49023H12.3259C12.2264 8.49023 12.131 8.52974 12.0607 8.60007C11.9904 8.6704 11.9509 8.76578 11.9509 8.86523V9.59897C11.9509 10.2103 12.4483 10.7077 13.0596 10.7077H13.1348C13.2292 12.5971 14.2356 14.5619 15.6997 15.6718C15.8778 15.8069 15.98 16.0158 15.98 16.2451C15.98 16.4745 15.8778 16.6834 15.6997 16.8184C14.2356 17.9283 13.2292 19.893 13.1348 21.7825H13.0596C12.4483 21.7825 11.9509 22.2799 11.9509 22.8912V23.25H0.75V0.75ZM23.25 22.8914V23.2501H12.7009V22.8914C12.7009 22.6935 12.8618 22.5326 13.0596 22.5326H22.8912C23.089 22.5326 23.25 22.6935 23.25 22.8914ZM17.6888 20.7254C17.7876 20.6842 17.8834 20.636 17.9754 20.5812C18.0675 20.636 18.1633 20.6841 18.2622 20.7254C18.7356 20.923 19.1809 21.2898 19.554 21.7826H16.3969C16.77 21.2898 17.2154 20.923 17.6888 20.7254ZM19.798 17.4161C21.0637 18.3757 21.9684 20.1366 22.065 21.7826H20.458C19.9582 20.9579 19.2875 20.3406 18.5511 20.0333C18.4818 20.0041 18.4147 19.9699 18.3504 19.9308V18.9002C18.3504 18.8007 18.3109 18.7053 18.2406 18.635C18.1702 18.5647 18.0748 18.5252 17.9754 18.5252C17.8759 18.5252 17.7806 18.5647 17.7102 18.635C17.6399 18.7053 17.6004 18.8007 17.6004 18.9002V19.9309C17.5362 19.9699 17.4691 20.0042 17.3999 20.0333C16.6635 20.3406 15.9927 20.9579 15.4928 21.7826H13.8859C13.9824 20.1366 14.8871 18.3757 16.1528 17.4162C16.5196 17.1381 16.73 16.7113 16.73 16.2452C16.73 15.7791 16.5196 15.3523 16.1528 15.0743C14.8871 14.1147 13.9824 12.3538 13.8859 10.7078H22.065C21.9684 12.3538 21.0638 14.1147 19.7981 15.0743C19.4313 15.3524 19.2209 15.7791 19.2209 16.2452C19.2209 16.7112 19.4312 17.138 19.798 17.4161ZM18.3504 16.6715V16.9948C18.3504 17.0942 18.3109 17.1896 18.2406 17.2599C18.1703 17.3303 18.0749 17.3698 17.9754 17.3698C17.876 17.3698 17.7806 17.3303 17.7103 17.2599C17.6399 17.1896 17.6004 17.0942 17.6004 16.9948V16.6715C17.6004 16.572 17.6399 16.4766 17.7103 16.4063C17.7806 16.336 17.876 16.2965 17.9754 16.2965C18.0749 16.2965 18.1703 16.336 18.2406 16.4063C18.3109 16.4766 18.3504 16.572 18.3504 16.6715ZM20.7691 12.5203C20.8048 12.4418 20.8124 12.3534 20.7905 12.27C20.7687 12.1866 20.7188 12.1132 20.6491 12.0623C19.458 11.1911 18.547 11.628 17.7433 12.0135C17.1405 12.3026 16.5713 12.5756 15.8152 12.4274C15.7447 12.4136 15.6717 12.4202 15.6049 12.4467C15.5381 12.4731 15.4803 12.5182 15.4384 12.5765C15.3965 12.6349 15.3722 12.704 15.3684 12.7758C15.3647 12.8475 15.3817 12.9188 15.4173 12.9812C15.9237 13.8693 16.6277 14.5358 17.3998 14.8581C17.4691 14.8872 17.5361 14.9214 17.6004 14.9605V15.4821C17.6004 15.5816 17.6399 15.6769 17.7102 15.7473C17.7806 15.8176 17.8759 15.8571 17.9754 15.8571C18.0748 15.8571 18.1702 15.8176 18.2406 15.7473C18.3109 15.6769 18.3504 15.5816 18.3504 15.4821V14.9606C18.4146 14.9215 18.4817 14.8873 18.551 14.8582C19.4566 14.4802 20.265 13.6281 20.7691 12.5203ZM18.2623 14.166C18.1634 14.2072 18.0676 14.2554 17.9755 14.3101C17.8834 14.2554 17.7876 14.2072 17.6887 14.1659C17.2496 13.9826 16.8328 13.6517 16.476 13.2096C17.0919 13.1578 17.6019 12.9132 18.0676 12.6898C18.7448 12.3649 19.2548 12.1205 19.9436 12.4988C19.5187 13.2931 18.9176 13.8924 18.2623 14.166ZM2.95931 5.9138C2.95931 5.81434 2.99882 5.71896 3.06915 5.64863C3.13947 5.57831 3.23486 5.5388 3.33431 5.5388H9.35306C9.45252 5.5388 9.5479 5.57831 9.61823 5.64863C9.68855 5.71896 9.72806 5.81434 9.72806 5.9138C9.72806 6.01325 9.68855 6.10864 9.61823 6.17896C9.5479 6.24929 9.45252 6.2888 9.35306 6.2888H3.33431C3.23486 6.2888 3.13947 6.24929 3.06915 6.17896C2.99882 6.10864 2.95931 6.01325 2.95931 5.9138ZM2.95931 9.97134C2.95931 9.87189 2.99882 9.77651 3.06915 9.70618C3.13947 9.63585 3.23486 9.59634 3.33431 9.59634H9.35306C9.45252 9.59634 9.5479 9.63585 9.61823 9.70618C9.68855 9.77651 9.72806 9.87189 9.72806 9.97134C9.72806 10.0708 9.68855 10.1662 9.61823 10.2365C9.5479 10.3068 9.45252 10.3463 9.35306 10.3463H3.33431C3.23486 10.3463 3.13947 10.3068 3.06915 10.2365C2.99882 10.1662 2.95931 10.0708 2.95931 9.97134ZM2.95931 14.0288C2.95931 13.9293 2.99882 13.834 3.06915 13.7636C3.13947 13.6933 3.23486 13.6538 3.33431 13.6538H11.7326C11.8321 13.6538 11.9275 13.6933 11.9978 13.7636C12.0681 13.834 12.1076 13.9293 12.1076 14.0288C12.1076 14.1283 12.0681 14.2236 11.9978 14.294C11.9275 14.3643 11.8321 14.4038 11.7326 14.4038H3.33431C3.23486 14.4038 3.13947 14.3643 3.06915 14.294C2.99882 14.2236 2.95931 14.1283 2.95931 14.0288ZM11.7326 18.4613H3.33431C3.23486 18.4613 3.13947 18.4218 3.06915 18.3515C2.99882 18.2811 2.95931 18.1858 2.95931 18.0863C2.95931 17.9868 2.99882 17.8915 3.06915 17.8211C3.13947 17.7508 3.23486 17.7113 3.33431 17.7113H11.7326C11.8321 17.7113 11.9275 17.7508 11.9978 17.8211C12.0681 17.8915 12.1076 17.9868 12.1076 18.0863C12.1076 18.1858 12.0681 18.2811 11.9978 18.3515C11.9275 18.4218 11.8321 18.4613 11.7326 18.4613Z" fill="white"/>
</g>
<defs>
<clipPath id="clip0_1027_75">
<rect width="24" height="24" fill="white"/>
</clipPath>
</defs>
</svg>
