<svg width="30" height="30" viewBox="0 0 30 30" fill="none" xmlns="http://www.w3.org/2000/svg">
<path d="M2.58917 13.0115L13.0114 2.58933C13.5391 2.0625 14.2543 1.7666 15 1.7666C15.7457 1.7666 16.461 2.0625 16.9887 2.58933L27.41 13.0115C27.934 13.5406 28.228 14.2552 28.228 15C28.228 15.7447 27.934 16.4593 27.41 16.9884L16.9887 27.4106C16.4608 27.9371 15.7456 28.2327 15 28.2327C14.2544 28.2327 13.5393 27.9371 13.0114 27.4106L2.58917 16.9884C2.06521 16.4592 1.77129 15.7446 1.77129 15C1.77129 14.2553 2.06521 13.5407 2.58917 13.0115ZM3.25198 16.3256L13.6742 26.7478C14.0262 27.0987 14.503 27.2958 15 27.2958C15.4971 27.2958 15.9739 27.0987 16.3259 26.7478L26.7467 16.3256C27.096 15.9728 27.292 15.4964 27.292 15C27.292 14.5035 27.096 14.0271 26.7467 13.6743L16.3259 3.25214C15.9739 2.90118 15.4971 2.70409 15 2.70409C14.503 2.70409 14.0262 2.90118 13.6742 3.25214L3.25198 13.6743C2.90093 14.0262 2.70378 14.5029 2.70378 15C2.70378 15.497 2.90093 15.9737 3.25198 16.3256ZM9.96449 15.3154L13.3775 19.0654C13.4186 19.112 13.4686 19.1499 13.5245 19.1769C13.5804 19.204 13.6412 19.2197 13.7032 19.223C13.7653 19.2264 13.8274 19.2174 13.8859 19.1966C13.9444 19.1757 13.9982 19.1435 14.0442 19.1017C14.0901 19.0598 14.1273 19.0093 14.1536 18.953C14.1798 18.8967 14.1946 18.8357 14.1971 18.7736C14.1995 18.7115 14.1896 18.6496 14.1679 18.5914C14.1463 18.5332 14.1132 18.4798 14.0707 18.4345L11.3717 15.4687H19.6887C19.813 15.4687 19.9323 15.4193 20.0202 15.3314C20.1081 15.2435 20.1575 15.1243 20.1575 15C20.1575 14.8756 20.1081 14.7564 20.0202 14.6685C19.9323 14.5806 19.813 14.5312 19.6887 14.5312H11.3717L14.0707 11.5654C14.1132 11.5201 14.1463 11.4668 14.1679 11.4085C14.1896 11.3503 14.1995 11.2884 14.1971 11.2263C14.1946 11.1642 14.1798 11.1032 14.1536 11.0469C14.1273 10.9906 14.0901 10.9401 14.0442 10.8982C13.9982 10.8564 13.9444 10.8242 13.8859 10.8033C13.8274 10.7825 13.7653 10.7735 13.7032 10.7769C13.6412 10.7802 13.5804 10.7959 13.5245 10.823C13.4686 10.85 13.4186 10.8879 13.3775 10.9345L9.96449 14.6845C9.93308 14.7304 9.90448 14.7778 9.8773 14.826C9.84588 14.9078 9.8374 14.9966 9.85277 15.0829C9.86813 15.1691 9.90676 15.2495 9.96449 15.3154Z" fill="white"/>
</svg>
