<svg width="20" height="20" viewBox="0 0 20 20" fill="none" xmlns="http://www.w3.org/2000/svg">
<g clip-path="url(#clip0_1027_1269)">
<path d="M19.375 10C19.375 8.10469 17.8328 6.5625 15.9375 6.5625C15.3942 6.56142 14.8585 6.6902 14.375 6.93812V3.75C14.375 3.06063 13.8144 2.5 13.125 2.5C12.4356 2.5 11.875 3.06063 11.875 3.75V3.93313L11.6078 4.20031C11.494 4.3134 11.4038 4.44795 11.3424 4.59617C11.2809 4.74438 11.2496 4.90331 11.25 5.06375C11.25 5.51 11.4878 5.91313 11.875 6.12937V8.4375H8.39L8.26719 7.70031C8.68135 7.42121 9.00304 7.02511 9.19125 6.5625H9.375C10.0644 6.5625 10.625 6.00187 10.625 5.3125C10.625 5.04531 10.5391 4.79844 10.3956 4.595L10.3988 4.58844C10.5471 4.29093 10.6246 3.96309 10.625 3.63063C10.6263 3.23256 10.516 2.84209 10.3067 2.50347C10.0975 2.16485 9.79754 1.8916 9.44094 1.71469L9.37156 1.68C9.3525 0.923125 8.73406 0.3125 7.97281 0.3125H5.9375C4.77594 0.3125 3.82312 1.22219 3.75406 2.36656L3.69313 2.4275C3.51249 2.6071 3.36926 2.82074 3.27174 3.05606C3.17422 3.29138 3.12435 3.54371 3.125 3.79844C3.125 4.0075 3.15844 4.21375 3.22438 4.41156L3.30969 4.66719C3.18995 4.86122 3.12605 5.08451 3.125 5.3125C3.125 6.00187 3.68563 6.5625 4.375 6.5625H4.55906C4.74719 7.02516 5.0689 7.42128 5.48312 7.70031L5.35563 8.46531L3.58375 8.66219C2.9919 8.72857 2.44006 8.99374 2.01844 9.41438C1.77405 9.65746 1.5803 9.94661 1.4484 10.2651C1.3165 10.5835 1.24906 10.925 1.25 11.2697V13.4375C1.25 14.4716 2.09094 15.3125 3.125 15.3125H5.37375L2.07906 17.5091C1.85194 17.3031 1.55659 17.1886 1.25 17.1875C0.560625 17.1875 0 17.7481 0 18.4375C0 19.1269 0.560625 19.6875 1.25 19.6875H16.25V13.4216C17.9994 13.2631 19.375 11.79 19.375 10ZM12.0497 4.64219L12.5 4.19187V3.75C12.5 3.40531 12.7803 3.125 13.125 3.125C13.4697 3.125 13.75 3.40531 13.75 3.75V5.625H12.2616L12.2047 5.59656C12.1054 5.54747 12.0219 5.47151 11.9636 5.37733C11.9053 5.28315 11.8746 5.17451 11.875 5.06375C11.875 4.90438 11.9369 4.755 12.0497 4.64219ZM12.0581 9.0625L12.5916 9.59594L13.0334 9.15406L12.5 8.62063V6.25H13.75V9.0625C13.75 9.75187 13.1894 10.3125 12.5 10.3125H10.3125V11.0469C10.1119 10.975 9.90055 10.938 9.6875 10.9375C9.25618 10.938 8.83819 11.087 8.50379 11.3595C8.16939 11.6319 7.93896 12.0111 7.85125 12.4334C7.82562 12.4144 7.80062 12.3944 7.77375 12.3775C8.39165 11.3644 8.79814 10.2368 8.96875 9.0625H12.0581ZM2.42594 18.0291L3.125 17.5631V19.0625H2.32625C2.43873 18.8733 2.4987 18.6576 2.5 18.4375C2.5 18.2938 2.47062 18.1578 2.42594 18.0291ZM3.75 17.1462L4.375 16.7297V19.0625H3.75V17.1462ZM5 16.3128L5.625 15.8962V19.0625H5V16.3128ZM6.25 15.4797L6.50063 15.3125H6.875V19.0625H6.25V15.4797ZM6.22594 9.79281L5.995 11.0625C5.71958 10.4313 5.52532 9.76763 5.41687 9.0875L5.51 9.07719L6.22594 9.79281ZM8.25437 9.0625H8.3375C8.23015 9.75305 8.03471 10.427 7.75594 11.0678L7.52406 9.79281L8.25437 9.0625ZM6.92688 10L7.28656 11.9784C7.24375 12.05 7.19812 12.12 7.15312 12.1903C7.14312 12.19 7.13375 12.1875 7.12375 12.1875C6.95937 12.1875 6.80125 12.2203 6.65594 12.2803C6.58979 12.1801 6.52581 12.0786 6.46406 11.9756L6.82312 10H6.92688ZM6.5625 13.1991L6.59094 13.1422C6.64003 13.0429 6.71599 12.9594 6.81017 12.9011C6.90435 12.8428 7.01299 12.8121 7.12375 12.8125C7.28312 12.8125 7.4325 12.8744 7.54531 12.9872L7.99563 13.4375H8.4375C8.78219 13.4375 9.0625 13.7178 9.0625 14.0625C9.0625 14.4072 8.78219 14.6875 8.4375 14.6875H6.5625V13.1991ZM10.9375 12.8125C10.9375 13.5019 10.3769 14.0625 9.6875 14.0625C9.6875 13.3731 9.12687 12.8125 8.4375 12.8125C8.4375 12.1231 8.99813 11.5625 9.6875 11.5625C10.3769 11.5625 10.9375 12.1231 10.9375 12.8125ZM7.5 15.3125H8.125V19.0625H7.5V15.3125ZM8.75 15.2681C8.99266 15.205 9.21054 15.0699 9.375 14.8806V19.0625H8.75V15.2681ZM10 14.6594C10.1559 14.6333 10.3079 14.5874 10.4522 14.5228L10.9641 15.2903C10.746 15.5628 10.6265 15.901 10.625 16.25V19.0625H10V14.6594ZM13.125 16.25C13.125 16.7669 12.7044 17.1875 12.1875 17.1875C11.6706 17.1875 11.25 16.7669 11.25 16.25C11.25 15.7331 11.6706 15.3125 12.1875 15.3125C12.7044 15.3125 13.125 15.7331 13.125 16.25ZM11.25 17.4919C11.434 17.6338 11.6476 17.7325 11.875 17.7806V19.0625H11.25V17.4919ZM12.5 17.7809C12.7273 17.7327 12.9409 17.634 13.125 17.4922V19.0625H12.5V17.7809ZM13.75 16.25C13.749 15.857 13.599 15.479 13.3303 15.1922L14.375 13.3641V19.0625H13.75V16.25ZM12.8206 14.8244C12.6216 14.7346 12.4058 14.688 12.1875 14.6875C11.9272 14.6893 11.6715 14.7569 11.4444 14.8841L10.9716 14.175C11.158 14.0004 11.3066 13.7894 11.4083 13.555C11.5099 13.3207 11.5624 13.0679 11.5625 12.8125C11.5625 12.2591 11.32 11.7625 10.9375 11.4188V10.9375H12.5C12.5431 10.9375 12.5853 10.9341 12.6278 10.9309C12.8425 11.6959 13.3161 12.3625 13.9678 12.8169L12.8206 14.8244ZM9.375 5.9375H9.35344C9.36625 5.835 9.375 5.73094 9.375 5.625V4.6875C9.71969 4.6875 10 4.96781 10 5.3125C10 5.65719 9.71969 5.9375 9.375 5.9375ZM4.375 5.9375C4.03031 5.9375 3.75 5.65719 3.75 5.3125C3.75 4.96781 4.03031 4.6875 4.375 4.6875V5.625C4.375 5.73094 4.38375 5.835 4.39656 5.9375H4.375ZM4.38 4.0625H4.375C4.17965 4.06381 3.9874 4.11147 3.81406 4.20156C3.77186 4.07134 3.75025 3.93533 3.75 3.79844C3.75 3.4475 3.88656 3.1175 4.13469 2.86937L4.375 2.62937V2.5C4.375 1.63844 5.07594 0.9375 5.9375 0.9375H7.97281C8.17886 0.937748 8.3764 1.01971 8.52209 1.16541C8.66779 1.3111 8.74975 1.50864 8.75 1.71469C8.75 2.04969 8.53625 2.34594 8.21906 2.45156L8.02656 2.51562L8.22375 3.10875L8.41656 3.04437C8.59513 2.98473 8.7598 2.88963 8.90071 2.76478C9.04162 2.63993 9.15585 2.4879 9.23656 2.31781C9.55204 2.49685 9.79235 2.78369 9.91336 3.12565C10.0344 3.46762 10.028 3.84176 9.89531 4.17937C9.7324 4.10316 9.55486 4.06328 9.375 4.0625V3.4375H7.96C7.09406 3.4375 6.22687 3.23281 5.4525 2.84531L5.3125 2.77562L5.17281 2.84562C4.94424 2.95944 4.75023 3.13225 4.61084 3.34619C4.47146 3.56013 4.39176 3.80743 4.38 4.0625ZM5 5.625V4.13625C5 3.87313 5.12344 3.63281 5.32938 3.47969C6.15361 3.86243 7.05124 4.0613 7.96 4.0625H8.75V5.625C8.75 6.65906 7.90906 7.5 6.875 7.5C5.84094 7.5 5 6.65906 5 5.625ZM6.875 8.125C7.1575 8.125 7.42812 8.07562 7.68156 7.98906L7.79031 8.64281L7.05813 9.375H6.69187L5.95969 8.64281L6.06844 7.98906C6.32796 8.07854 6.60049 8.12447 6.875 8.125ZM1.875 13.4375V11.2694C1.87427 11.0069 1.92562 10.7468 2.02609 10.5043C2.12656 10.2618 2.27415 10.0416 2.46031 9.85656C2.78146 9.53625 3.20175 9.33432 3.6525 9.28375L4.79531 9.15656C4.99109 10.4096 5.45614 11.6052 6.15844 12.6612C6.12112 12.7091 6.08739 12.7597 6.0575 12.8125H3.75V11.4553C3.75053 11.25 3.71034 11.0466 3.63176 10.857C3.55317 10.6673 3.43776 10.4951 3.29219 10.3503L3.03344 10.0916L2.59156 10.5334L2.85031 10.7922C3.02719 10.9697 3.125 11.2047 3.125 11.4553V12.9956L2.59156 13.5291L3.03344 13.9709L3.56687 13.4375H5.9375V14.6875H3.125C2.43563 14.6875 1.875 14.1269 1.875 13.4375ZM0.625 18.4375C0.625 18.0928 0.905312 17.8125 1.25 17.8125C1.59469 17.8125 1.875 18.0928 1.875 18.4375C1.875 18.7822 1.59469 19.0625 1.25 19.0625C0.905312 19.0625 0.625 18.7822 0.625 18.4375ZM15 19.0625V13.3059C15.2022 13.3631 15.4106 13.4037 15.625 13.4231V19.0625H15ZM15.9375 12.8125C15.3287 12.8124 14.7364 12.6149 14.2495 12.2495C13.7625 11.8841 13.4072 11.3707 13.2369 10.7862C13.5743 10.6417 13.862 10.4013 14.0643 10.095C14.2666 9.78858 14.3746 9.42963 14.375 9.0625V7.66344C14.8365 7.35207 15.3808 7.18628 15.9375 7.1875C17.4884 7.1875 18.75 8.44906 18.75 10C18.75 11.5509 17.4884 12.8125 15.9375 12.8125Z" fill="white"/>
<path d="M16.25 8.48281V7.8125H15.625V8.48281C15.4444 8.5392 15.2864 8.65166 15.174 8.80388C15.0617 8.9561 15.0007 9.14016 15 9.32938C14.9995 9.49514 15.0454 9.65774 15.1326 9.79874C15.2197 9.93975 15.3446 10.0535 15.4931 10.1272L16.1022 10.4319C16.1467 10.4538 16.1842 10.4879 16.2103 10.5301C16.2365 10.5723 16.2502 10.621 16.25 10.6706C16.25 10.8175 16.13 10.9375 15.9831 10.9375H15.8922C15.8214 10.9374 15.7535 10.9093 15.7035 10.8593C15.6534 10.8092 15.6252 10.7414 15.625 10.6706V10.625H15V10.6706C15 11.0691 15.2641 11.4031 15.625 11.5172V12.1875H16.25V11.5172C16.4306 11.4608 16.5886 11.3483 16.701 11.1961C16.8133 11.0439 16.8743 10.8598 16.875 10.6706C16.8755 10.5049 16.8296 10.3423 16.7424 10.2013C16.6553 10.0603 16.5304 9.94647 16.3819 9.87281L15.7728 9.56813C15.7283 9.54617 15.6908 9.51215 15.6647 9.46994C15.6386 9.42773 15.6248 9.37902 15.625 9.32938C15.625 9.1825 15.745 9.0625 15.8919 9.0625H15.9828C16.13 9.0625 16.25 9.1825 16.25 9.32938V9.375H16.875V9.32938C16.8743 9.14016 16.8133 8.9561 16.701 8.80388C16.5886 8.65166 16.4306 8.5392 16.25 8.48281ZM6.875 6.875C7.56438 6.875 8.125 6.31438 8.125 5.625H7.5C7.5 5.96969 7.21969 6.25 6.875 6.25C6.53031 6.25 6.25 5.96969 6.25 5.625H5.625C5.625 6.31438 6.18563 6.875 6.875 6.875Z" fill="white"/>
</g>
<defs>
<clipPath id="clip0_1027_1269">
<rect width="20" height="20" fill="white"/>
</clipPath>
</defs>
</svg>
