<svg width="20" height="20" viewBox="0 0 20 20" fill="none" xmlns="http://www.w3.org/2000/svg">
<path d="M17.4533 10.0842C17.2908 10.0842 17.1533 9.9561 17.1408 9.79048C17.0752 8.71548 16.7783 7.68423 16.2658 6.7311C15.623 5.53261 14.667 4.53104 13.4997 3.8332C12.3324 3.13536 10.9976 2.76742 9.63766 2.7686C9.60954 2.7686 9.58454 2.7686 9.55641 2.77173C8.81891 2.7811 8.11891 2.89048 7.45329 3.0936C7.28766 3.1436 7.11266 3.04985 7.06266 2.88735C7.01266 2.72173 7.10641 2.54673 7.26891 2.49673C7.99079 2.27485 8.75016 2.15923 9.52516 2.14985C9.54704 2.14673 9.59079 2.14673 9.63766 2.14673C12.6439 2.14673 15.3939 3.79048 16.8158 6.44048C17.372 7.47485 17.6908 8.5936 17.7658 9.75923C17.7684 9.8003 17.7629 9.84149 17.7495 9.88041C17.7361 9.91933 17.7152 9.95523 17.6879 9.98602C17.6606 10.0168 17.6275 10.0419 17.5904 10.0598C17.5534 10.0778 17.5131 10.0882 17.472 10.0905C17.4658 10.0811 17.4595 10.0842 17.4533 10.0842ZM9.63766 18.428C8.28355 18.4303 6.95041 18.0935 5.75989 17.4483C4.56937 16.8031 3.55937 15.87 2.82204 14.7342C1.75407 13.1053 1.30916 11.1459 1.56891 9.21548C1.59079 9.0436 1.74704 8.92485 1.91891 8.94673C2.09079 8.9686 2.20954 9.12798 2.18766 9.29673C2.14391 9.62485 2.12204 9.9561 2.12204 10.2811C2.12204 11.7499 2.54391 13.1717 3.34704 14.3905C4.02785 15.4395 4.96046 16.3013 6.05981 16.8974C7.15915 17.4934 8.39025 17.8048 9.64079 17.803C10.6627 17.803 11.6502 17.603 12.5752 17.2092C12.7314 17.1405 12.9158 17.2155 12.9845 17.3749C13.0533 17.5342 12.9783 17.7155 12.8189 17.7842C11.813 18.212 10.7307 18.431 9.63766 18.428Z" fill="#1788FB"/>
<path d="M9.6375 18.4279C8.37188 18.4279 7.22812 17.0154 6.57812 14.6467C6.21875 13.3467 6.03125 11.8373 6.03125 10.2873C6.03125 10.2061 6.03125 10.1248 6.03438 10.0467C6.04063 9.87793 6.17813 9.74668 6.34688 9.74668H6.35938C6.53125 9.75293 6.66563 9.89981 6.65938 10.0717C6.65625 10.1436 6.65625 10.2123 6.65625 10.2842C6.65625 11.7842 6.8375 13.2342 7.18125 14.4811C7.74375 16.5311 8.6875 17.8029 9.64063 17.8029C10.225 17.8029 10.8188 17.3186 11.3188 16.4436C11.3617 16.3762 11.4289 16.3278 11.5064 16.3084C11.5839 16.289 11.6659 16.3001 11.7356 16.3393C11.8052 16.3785 11.8572 16.4429 11.8808 16.5193C11.9044 16.5956 11.8978 16.6781 11.8625 16.7498C11.2344 17.8498 10.4688 18.4279 9.6375 18.4279ZM12.9188 9.82481C12.7531 9.82481 12.6125 9.69355 12.6063 9.52481C12.5656 8.4998 12.4406 7.53418 12.2375 6.64981C11.7031 4.29043 10.6813 2.76543 9.63438 2.76543C9.60625 2.76543 9.58125 2.76543 9.55313 2.76855C9.11563 2.80293 8.6875 3.09355 8.27813 3.63418C8.175 3.77168 7.97813 3.7998 7.84063 3.69355C7.80776 3.66891 7.78012 3.63798 7.75931 3.60256C7.7385 3.56714 7.72494 3.52793 7.71942 3.48723C7.71389 3.44652 7.71651 3.40512 7.72713 3.36543C7.73774 3.32575 7.75614 3.28857 7.78125 3.25605C8.30313 2.56855 8.88125 2.19355 9.50313 2.14668C9.54688 2.14355 9.59063 2.14355 9.63438 2.14355C11.0281 2.14355 12.2281 3.77793 12.8469 6.51543C13.0594 7.43418 13.1875 8.44043 13.2281 9.50293C13.2344 9.67481 13.1 9.82168 12.9281 9.82793C12.9281 9.82481 12.925 9.82481 12.9188 9.82481Z" fill="#1788FB"/>
<path d="M16.5408 6.89375H8.96269C8.79082 6.89375 8.65019 6.75313 8.65019 6.58125C8.65019 6.40938 8.79082 6.26875 8.96269 6.26875H16.5408C16.7127 6.26875 16.8533 6.40938 16.8533 6.58125C16.8533 6.75313 16.7127 6.89375 16.5408 6.89375ZM10.5377 14.8781H3.08457C2.9127 14.8781 2.77207 14.7375 2.77207 14.5656C2.77207 14.3938 2.9127 14.2531 3.08457 14.2531H10.5377C10.7096 14.2531 10.8502 14.3938 10.8502 14.5656C10.8502 14.7375 10.7127 14.8781 10.5377 14.8781ZM11.8252 10.6H1.80957C1.6377 10.6 1.49707 10.4594 1.49707 10.2875C1.49707 10.1156 1.6377 9.975 1.80957 9.975H11.8252C11.9971 9.975 12.1377 10.1156 12.1377 10.2875C12.1377 10.4594 11.9971 10.6 11.8252 10.6ZM5.52207 8.11875H3.54707C3.3752 8.11875 3.23457 7.97813 3.23457 7.80625V6.125C3.23457 5.95313 3.3752 5.8125 3.54707 5.8125H5.52207C5.7499 5.81228 5.97267 5.87964 6.16221 6.00606C6.35174 6.13248 6.49952 6.31228 6.58683 6.52271C6.67415 6.73315 6.69709 6.96475 6.65274 7.18822C6.60839 7.41169 6.49875 7.61698 6.3377 7.77813C6.11895 8 5.83144 8.11875 5.52207 8.11875ZM3.85957 7.49375H5.52207C5.66269 7.49375 5.79707 7.4375 5.89395 7.3375C5.99395 7.2375 6.0502 7.10313 6.0502 6.9625C6.0502 6.67188 5.8127 6.4375 5.52207 6.4375H3.85957V7.49375Z" fill="#1788FB"/>
<path d="M5.22187 6.44053H3.54687C3.375 6.44053 3.23438 6.2999 3.23438 6.12803V4.44678C3.23438 4.2749 3.375 4.13428 3.54687 4.13428H5.22187C5.7875 4.13428 6.24687 4.6499 6.24687 5.28428C6.24687 5.58428 6.14687 5.86553 5.9625 6.08115C5.77187 6.30928 5.50312 6.44053 5.22187 6.44053ZM3.85937 5.81553H5.22187C5.31875 5.81553 5.4125 5.76865 5.4875 5.67803C5.575 5.5749 5.625 5.4374 5.625 5.2874C5.625 5.00303 5.44062 4.7624 5.225 4.7624H3.8625V5.81553H3.85937Z" fill="#1788FB"/>
<path d="M4.0874 4.75918C3.91553 4.75918 3.7749 4.61856 3.7749 4.44668V3.70605C3.7749 3.53418 3.91553 3.39355 4.0874 3.39355C4.25928 3.39355 4.3999 3.53418 4.3999 3.70605V4.44668C4.3999 4.62168 4.25928 4.75918 4.0874 4.75918ZM5.08428 4.75918C4.9124 4.75918 4.77178 4.61856 4.77178 4.44668V3.70605C4.77178 3.53418 4.9124 3.39355 5.08428 3.39355C5.25615 3.39355 5.39678 3.53418 5.39678 3.70605V4.44668C5.39678 4.62168 5.25615 4.75918 5.08428 4.75918ZM4.0874 8.85918C3.91553 8.85918 3.7749 8.71856 3.7749 8.54668V7.80606C3.7749 7.63418 3.91553 7.49356 4.0874 7.49356C4.25928 7.49356 4.3999 7.63418 4.3999 7.80606V8.54668C4.3999 8.71856 4.25928 8.85918 4.0874 8.85918ZM5.08428 8.85918C4.9124 8.85918 4.77178 8.71856 4.77178 8.54668V7.80606C4.77178 7.63418 4.9124 7.49356 5.08428 7.49356C5.25615 7.49356 5.39678 7.63418 5.39678 7.80606V8.54668C5.39678 8.71856 5.25615 8.85918 5.08428 8.85918Z" fill="#1788FB"/>
<path d="M4.74375 10.6843C2.23125 10.6843 0.1875 8.64052 0.1875 6.12803C0.1875 3.61553 2.23125 1.57178 4.74375 1.57178C7.25625 1.57178 9.3 3.61553 9.3 6.12803C9.3 8.64052 7.25625 10.6843 4.74375 10.6843ZM4.74375 2.19678C2.575 2.19678 0.8125 3.95928 0.8125 6.12803C0.8125 8.29677 2.575 10.0593 4.74375 10.0593C6.9125 10.0593 8.675 8.29677 8.675 6.12803C8.675 3.95928 6.90937 2.19678 4.74375 2.19678ZM14.9625 14.6843C14.9 14.6843 14.8406 14.6655 14.7875 14.6311L13.2094 13.5593C13.0813 13.4718 13.0375 13.3061 13.1031 13.1655L14.6813 9.8374C14.7344 9.72802 14.8438 9.65927 14.9625 9.65927C15.0844 9.65927 15.1938 9.72802 15.2437 9.8374L16.8219 13.1655C16.8875 13.3061 16.8438 13.4718 16.7156 13.5593L15.1375 14.6311C15.0844 14.6655 15.025 14.6843 14.9625 14.6843ZM13.7812 13.1936L14.9625 13.9968L16.1438 13.1936L14.9625 10.703L13.7812 13.1936Z" fill="#1788FB"/>
<path d="M14.9627 17.1936C14.8565 17.1936 14.7533 17.1373 14.6971 17.0467L13.119 14.5123C13.0806 14.4515 13.0647 14.3793 13.0738 14.308C13.0829 14.2368 13.1166 14.1709 13.169 14.1217C13.2752 14.0186 13.4377 14.0061 13.5596 14.0873L14.9627 15.0405L16.3658 14.0873C16.4877 14.003 16.6502 14.0186 16.7565 14.1217C16.8627 14.2248 16.8846 14.3873 16.8065 14.5123L15.2283 17.0467C15.1721 17.1373 15.0721 17.1936 14.9627 17.1936ZM14.4283 15.4311L14.9627 16.2905L15.4971 15.4342L15.1377 15.678C15.0315 15.7498 14.894 15.7498 14.7877 15.678L14.4283 15.4311Z" fill="#1788FB"/>
<path d="M14.9624 14.6842C14.7905 14.6842 14.6499 14.5436 14.6499 14.3717V9.97168C14.6499 9.7998 14.7905 9.65918 14.9624 9.65918C15.1343 9.65918 15.2749 9.7998 15.2749 9.97168V14.3717C15.2749 14.5436 15.1343 14.6842 14.9624 14.6842Z" fill="#1788FB"/>
<path d="M14.9623 18.4156C12.2873 18.4156 10.1123 16.2406 10.1123 13.5656C10.1123 10.8906 12.2873 8.71558 14.9623 8.71558C17.6373 8.71558 19.8123 10.8906 19.8123 13.5656C19.8123 16.2406 17.6373 18.4156 14.9623 18.4156ZM14.9623 9.33745C12.6311 9.33745 10.7373 11.2343 10.7373 13.5625C10.7373 15.8906 12.6342 17.7875 14.9623 17.7875C17.2904 17.7875 19.1873 15.8968 19.1873 13.5656C19.1873 11.2343 17.2936 9.33745 14.9623 9.33745Z" fill="#1788FB"/>
</svg>
