<svg width="30" height="30" viewBox="0 0 30 30" fill="none" xmlns="http://www.w3.org/2000/svg">
<path d="M27.4108 13.0115L16.9886 2.58933C16.4609 2.0625 15.7457 1.7666 15 1.7666C14.2543 1.7666 13.539 2.0625 13.0113 2.58933L2.59004 13.0115C2.06597 13.5406 1.77197 14.2552 1.77197 15C1.77197 15.7447 2.06597 16.4593 2.59004 16.9884L13.0113 27.4106C13.5392 27.9371 14.2544 28.2327 15 28.2327C15.7456 28.2327 16.4607 27.9371 16.9886 27.4106L27.4108 16.9884C27.9348 16.4592 28.2287 15.7446 28.2287 15C28.2287 14.2553 27.9348 13.5407 27.4108 13.0115ZM26.748 16.3256L16.3258 26.7478C15.9738 27.0987 15.497 27.2958 15 27.2958C14.5029 27.2958 14.0261 27.0987 13.6741 26.7478L3.25333 16.3256C2.90398 15.9728 2.70801 15.4964 2.70801 15C2.70801 14.5035 2.90398 14.0271 3.25333 13.6743L13.6741 3.25214C14.0261 2.90118 14.5029 2.70409 15 2.70409C15.497 2.70409 15.9738 2.90118 16.3258 3.25214L26.748 13.6743C27.0991 14.0262 27.2962 14.5029 27.2962 15C27.2962 15.497 27.0991 15.9737 26.748 16.3256ZM20.0355 15.3154L16.6225 19.0654C16.5814 19.112 16.5314 19.1499 16.4755 19.1769C16.4196 19.204 16.3588 19.2197 16.2968 19.223C16.2347 19.2264 16.1726 19.2174 16.1141 19.1966C16.0556 19.1757 16.0018 19.1435 15.9558 19.1017C15.9099 19.0598 15.8727 19.0093 15.8464 18.953C15.8202 18.8967 15.8054 18.8357 15.8029 18.7736C15.8005 18.7115 15.8104 18.6496 15.8321 18.5914C15.8537 18.5332 15.8868 18.4798 15.9293 18.4345L18.6283 15.4687H10.3113C10.187 15.4687 10.0677 15.4193 9.97984 15.3314C9.89193 15.2435 9.84254 15.1243 9.84254 15C9.84254 14.8756 9.89193 14.7564 9.97984 14.6685C10.0677 14.5806 10.187 14.5312 10.3113 14.5312H18.6283L15.9293 11.5654C15.8868 11.5201 15.8537 11.4668 15.8321 11.4085C15.8104 11.3503 15.8005 11.2884 15.8029 11.2263C15.8054 11.1642 15.8202 11.1032 15.8464 11.0469C15.8727 10.9906 15.9099 10.9401 15.9558 10.8982C16.0018 10.8564 16.0556 10.8242 16.1141 10.8033C16.1726 10.7825 16.2347 10.7735 16.2968 10.7769C16.3588 10.7802 16.4196 10.7959 16.4755 10.823C16.5314 10.85 16.5814 10.8879 16.6225 10.9345L20.0355 14.6845C20.0669 14.7304 20.0955 14.7778 20.1227 14.826C20.1541 14.9078 20.1626 14.9966 20.1472 15.0829C20.1319 15.1691 20.0932 15.2495 20.0355 15.3154Z" fill="white"/>
</svg>
