<svg width="20" height="20" viewBox="0 0 20 20" fill="none" xmlns="http://www.w3.org/2000/svg">
<g clip-path="url(#clip0_1027_1251)">
<path d="M2.6935 16.463L8.02684 19.4803C8.62856 19.8209 9.30822 20 9.99967 20C10.6911 20 11.3708 19.8209 11.9725 19.4803L17.3058 16.463C17.9202 16.1147 18.4314 15.6099 18.7875 15C19.1436 14.3902 19.3319 13.6969 19.3332 12.9906V7.00963C19.3322 6.30333 19.1441 5.6099 18.788 4.99995C18.4318 4.39 17.9204 3.88532 17.3058 3.5373L11.9725 0.519629C11.3686 0.185212 10.6896 0.00976562 9.99934 0.00976562C9.30904 0.00976562 8.63006 0.185212 8.02617 0.519629L2.69284 3.5373C2.07844 3.88547 1.56726 4.39022 1.21132 5.00015C0.855389 5.61009 0.667404 6.30343 0.666504 7.00963V12.9906C0.667539 13.6969 0.855653 14.3902 1.2117 15.0002C1.56775 15.6101 2.07903 16.1148 2.6935 16.463ZM1.33317 7.00963C1.33403 6.42132 1.49075 5.84374 1.78738 5.33569C2.084 4.82763 2.50994 4.40724 3.02184 4.1173L8.35517 1.09963C8.85697 0.815805 9.42367 0.666643 10.0002 0.666643C10.5767 0.666643 11.1434 0.815805 11.6452 1.09963L16.9785 4.11763C17.4903 4.40758 17.9161 4.82794 18.2126 5.33594C18.5091 5.84394 18.6657 6.42143 18.6665 7.00963V12.9906C18.6656 13.5788 18.5089 14.1563 18.2123 14.6643C17.9158 15.1723 17.4899 15.5926 16.9782 15.8826L11.6448 18.9003C11.1415 19.1789 10.5756 19.325 10.0003 19.325C9.42504 19.325 8.85918 19.1789 8.35584 18.9003L3.0225 15.8826C2.51051 15.5928 2.08445 15.1725 1.7877 14.6645C1.49096 14.1565 1.33412 13.579 1.33317 12.9906V7.00963Z" fill="white"/>
<path d="M3.51401 15.0123L8.84734 18.0299C9.19914 18.2277 9.59593 18.3316 9.99951 18.3316C10.4031 18.3316 10.7999 18.2277 11.1517 18.0299L16.485 15.0123C16.843 14.8097 17.1409 14.516 17.3484 14.1608C17.556 13.8057 17.6656 13.4019 17.6663 12.9906V7.00961C17.6657 6.59824 17.556 6.19439 17.3485 5.8392C17.141 5.48401 16.8431 5.19017 16.485 4.98761L11.1517 1.96994C10.7999 1.77212 10.4031 1.66821 9.99951 1.66821C9.59592 1.66821 9.19913 1.77212 8.84734 1.96994L3.51401 4.98761C3.1561 5.19029 2.85827 5.48417 2.65082 5.83934C2.44338 6.19451 2.33372 6.5983 2.33301 7.00961V12.9906C2.33378 13.4019 2.44346 13.8056 2.65091 14.1607C2.85835 14.5158 3.15615 14.8096 3.51401 15.0123ZM2.99967 7.00961C3.00003 6.71602 3.07825 6.42779 3.22634 6.17429C3.37443 5.92079 3.58711 5.7111 3.84267 5.56661L9.17601 2.54861C9.42756 2.40721 9.71127 2.33294 9.99984 2.33294C10.2884 2.33294 10.5721 2.40721 10.8237 2.54861L16.157 5.56661C16.4125 5.71117 16.6251 5.92088 16.7731 6.17437C16.9211 6.42786 16.9993 6.71606 16.9997 7.00961V12.9906C16.9992 13.2841 16.921 13.5722 16.773 13.8256C16.625 14.0791 16.4124 14.2887 16.157 14.4333L10.8237 17.4509C10.572 17.5921 10.2884 17.6662 9.99984 17.6662C9.71133 17.6662 9.42765 17.5921 9.17601 17.4509L3.84267 14.4333C3.58718 14.2888 3.37456 14.0791 3.22647 13.8257C3.07838 13.5723 3.00013 13.2841 2.99967 12.9906V7.00961Z" fill="white"/>
<path d="M4.66636 12.9998C4.75477 12.9998 4.83955 12.9647 4.90206 12.9022C4.96458 12.8397 4.9997 12.7549 4.9997 12.6665V8.74517L7.0347 12.8155C7.06238 12.8709 7.10497 12.9175 7.15766 12.9501C7.21036 12.9826 7.27109 12.9999 7.33303 12.9998C7.35882 12.9997 7.38453 12.9968 7.4097 12.9912C7.4828 12.9739 7.54793 12.9324 7.59452 12.8735C7.64111 12.8146 7.66642 12.7416 7.66636 12.6665V7.33317C7.66636 7.24477 7.63124 7.15998 7.56873 7.09747C7.50622 7.03496 7.42143 6.99984 7.33303 6.99984C7.24462 6.99984 7.15984 7.03496 7.09733 7.09747C7.03481 7.15998 6.9997 7.24477 6.9997 7.33317V11.2545L4.96636 7.18417C4.93334 7.11597 4.87807 7.06105 4.80965 7.02847C4.74124 6.9959 4.66377 6.9876 4.59 7.00495C4.51624 7.02231 4.45059 7.06427 4.40388 7.12394C4.35717 7.1836 4.33218 7.2574 4.33303 7.33317V12.6665C4.33303 12.7549 4.36815 12.8397 4.43066 12.9022C4.49317 12.9647 4.57796 12.9998 4.66636 12.9998ZM8.9997 12.9998C9.0881 12.9998 9.17289 12.9647 9.2354 12.9022C9.29791 12.8397 9.33303 12.7549 9.33303 12.6665V10.3332H10.6664C10.7548 10.3332 10.8396 10.2981 10.9021 10.2355C10.9646 10.173 10.9997 10.0882 10.9997 9.99984C10.9997 9.91143 10.9646 9.82665 10.9021 9.76414C10.8396 9.70163 10.7548 9.66651 10.6664 9.66651H9.33303V7.66651H11.6664C11.7548 7.66651 11.8396 7.63139 11.9021 7.56888C11.9646 7.50636 11.9997 7.42158 11.9997 7.33317C11.9997 7.24477 11.9646 7.15998 11.9021 7.09747C11.8396 7.03496 11.7548 6.99984 11.6664 6.99984H8.9997C8.91129 6.99984 8.82651 7.03496 8.76399 7.09747C8.70148 7.15998 8.66636 7.24477 8.66636 7.33317V12.6665C8.66636 12.7549 8.70148 12.8397 8.76399 12.9022C8.82651 12.9647 8.91129 12.9998 8.9997 12.9998ZM12.6664 7.66651H13.6664V12.6665C13.6664 12.7549 13.7015 12.8397 13.764 12.9022C13.8265 12.9647 13.9113 12.9998 13.9997 12.9998C14.0881 12.9998 14.1729 12.9647 14.2354 12.9022C14.2979 12.8397 14.333 12.7549 14.333 12.6665V7.66651H15.333C15.4214 7.66651 15.5062 7.63139 15.5687 7.56888C15.6312 7.50636 15.6664 7.42158 15.6664 7.33317C15.6664 7.24477 15.6312 7.15998 15.5687 7.09747C15.5062 7.03496 15.4214 6.99984 15.333 6.99984H12.6664C12.578 6.99984 12.4932 7.03496 12.4307 7.09747C12.3681 7.15998 12.333 7.24477 12.333 7.33317C12.333 7.42158 12.3681 7.50636 12.4307 7.56888C12.4932 7.63139 12.578 7.66651 12.6664 7.66651Z" fill="white"/>
</g>
<defs>
<clipPath id="clip0_1027_1251">
<rect width="20" height="20" fill="white"/>
</clipPath>
</defs>
</svg>
