<svg width="20" height="20" viewBox="0 0 20 20" fill="none" xmlns="http://www.w3.org/2000/svg">
<path d="M7.34375 19.2188C7.34375 19.6503 6.99402 20 6.5625 20H3.125C1.40184 20 0 18.5982 0 16.875V3.125C0 1.40184 1.40184 0 3.125 0H12.7301C14.4531 0 15.8551 1.40184 15.8551 3.125V10.5859C15.8551 11.0175 15.5052 11.3672 15.0738 11.3672C14.6423 11.3672 14.2926 11.0175 14.2926 10.5859V3.125C14.2926 2.26348 13.5916 1.5625 12.7301 1.5625H3.125C2.26348 1.5625 1.5625 2.26348 1.5625 3.125V16.875C1.5625 17.7365 2.26348 18.4375 3.125 18.4375H6.5625C6.99402 18.4375 7.34375 18.7872 7.34375 19.2188ZM11.9488 4.6875H3.90195C3.47047 4.6875 3.1207 5.03723 3.1207 5.46875C3.1207 5.90027 3.47047 6.25 3.90195 6.25H11.9488C12.3802 6.25 12.7301 5.90027 12.7301 5.46875C12.7301 5.03723 12.3802 4.6875 11.9488 4.6875ZM12.7301 8.59375C12.7301 8.16223 12.3802 7.8125 11.9488 7.8125H3.90195C3.47047 7.8125 3.1207 8.16223 3.1207 8.59375C3.1207 9.02527 3.47047 9.375 3.90195 9.375H11.9488C12.3802 9.375 12.7301 9.02527 12.7301 8.59375ZM3.90195 10.9375C3.47047 10.9375 3.1207 11.2872 3.1207 11.7188C3.1207 12.1503 3.47047 12.5 3.90195 12.5H8.00781C8.43934 12.5 8.78906 12.1503 8.78906 11.7188C8.78906 11.2872 8.43934 10.9375 8.00781 10.9375H3.90195ZM17.7876 16.66C17.7602 16.6992 17.666 16.8324 17.6075 16.9061C17.3459 17.2353 16.7334 18.0057 15.8812 18.6858C14.7885 19.5578 13.6641 20 12.5391 20C11.4141 20 10.2896 19.5578 9.19691 18.6857C8.34473 18.0057 7.73223 17.2351 7.4707 16.9061C7.41211 16.8324 7.31797 16.6991 7.29051 16.66C7.19808 16.5285 7.14848 16.3716 7.14848 16.2109C7.14848 16.0501 7.19808 15.8933 7.29051 15.7617C7.31797 15.7227 7.41211 15.5893 7.4707 15.5156C7.73223 15.1866 8.34473 14.4162 9.19691 13.7361C10.2896 12.8641 11.4141 12.4219 12.5391 12.4219C13.6641 12.4219 14.7885 12.8641 15.8812 13.7361C16.7334 14.4162 17.3459 15.1868 17.6074 15.5157C17.666 15.5895 17.7602 15.7228 17.7876 15.7618C17.88 15.8933 17.9296 16.0502 17.9296 16.2109C17.9296 16.3717 17.88 16.5285 17.7876 16.66ZM16.158 16.2109C14.9158 14.7331 13.6995 13.9844 12.5391 13.9844C11.3788 13.9844 10.1623 14.733 8.92012 16.2109C10.1623 17.6887 11.3786 18.4375 12.5391 18.4375C13.6995 18.4375 14.9158 17.6889 16.158 16.2109ZM12.5781 14.7266C11.7583 14.7266 11.0938 15.3911 11.0938 16.2109C11.0938 17.0308 11.7583 17.6953 12.5781 17.6953C13.398 17.6953 14.0625 17.0308 14.0625 16.2109C14.0625 15.3911 13.398 14.7266 12.5781 14.7266Z" fill="white"/>
</svg>
