<svg width="20" height="20" viewBox="0 0 20 20" fill="none" xmlns="http://www.w3.org/2000/svg">
<g clip-path="url(#clip0_1027_1263)">
<path d="M1.94469 7.34422C1.01918 9.13872 0.762098 11.2227 1.22485 13.2487C2.30461 17.4166 6.21232 19.8478 9.91437 18.748C11.5415 18.3039 12.9321 17.221 13.9051 15.7036C13.9726 15.5983 13.9412 15.452 13.8398 15.3884L7.82821 11.616C7.7813 11.5866 7.74705 11.5374 7.73325 11.4795L5.95757 4.03835C5.92831 3.91572 5.81259 3.84485 5.70488 3.88695C4.1466 4.49595 2.83266 5.73359 1.94469 7.34422Z" stroke="white" stroke-width="1.25"/>
<path d="M8.01583 1.26886C7.90687 1.29387 7.83996 1.41554 7.86674 1.53553L9.62217 9.39833C9.6495 9.52073 9.76291 9.59336 9.87193 9.55827L16.3093 7.48659C16.4161 7.45222 16.4772 7.32682 16.4429 7.20929C15.1866 2.90354 11.5999 0.445925 8.01583 1.26886Z" stroke="white" stroke-width="1.25"/>
<path d="M18.8453 9.10737C18.8232 8.98299 18.71 8.90757 18.5999 8.94107L12.4031 10.8275C12.2321 10.8796 12.2021 11.1348 12.3553 11.2339L17.9333 14.8409C18.0326 14.9051 18.1602 14.8635 18.2096 14.7484C18.9502 13.0217 19.19 11.044 18.8453 9.10737Z" stroke="white" stroke-width="1.25"/>
</g>
<defs>
<clipPath id="clip0_1027_1263">
<rect width="20" height="20" fill="white"/>
</clipPath>
</defs>
</svg>
