<svg width="20" height="20" viewBox="0 0 20 20" fill="none" xmlns="http://www.w3.org/2000/svg">
<g clip-path="url(#clip0_1027_1219)">
<path d="M17.5098 11.3679C17.7255 11.3679 17.9004 11.193 17.9004 10.9773C17.9004 10.7616 17.7255 10.5867 17.5098 10.5867C17.294 10.5867 17.1191 10.7616 17.1191 10.9773C17.1191 11.193 17.294 11.3679 17.5098 11.3679Z" fill="white"/>
<path d="M10.7145 5.84005C10.8915 5.9643 11.1356 5.92149 11.2597 5.74454L12.4452 4.05536L14.444 7.76766C14.4771 7.82932 14.5263 7.88094 14.5862 7.91714C14.6462 7.95334 14.7147 7.9728 14.7847 7.97348H14.7886C14.9297 7.97348 15.06 7.89743 15.1295 7.77434L18.4134 1.95044L18.5381 2.67298C18.571 2.86345 18.7364 2.99786 18.9234 2.99782C18.9455 2.99782 18.9679 2.99595 18.9904 2.99204C19.2034 2.95524 19.3463 2.75274 19.3095 2.53973L19.0049 0.77618C18.9953 0.720436 18.9737 0.667442 18.9416 0.620848C18.9095 0.574255 18.8677 0.535169 18.8191 0.506284C18.7704 0.477399 18.7161 0.459401 18.6599 0.45353C18.6036 0.447659 18.5467 0.454053 18.4932 0.472274L16.7988 1.0488C16.5942 1.11841 16.4848 1.34075 16.5544 1.5454C16.6241 1.75009 16.8465 1.8595 17.051 1.78985L17.7368 1.55649L14.7965 6.77122L12.8338 3.12587C12.8022 3.06709 12.756 3.01739 12.6998 2.98148C12.6435 2.94557 12.5789 2.92465 12.5123 2.92071C12.4457 2.91669 12.3791 2.92983 12.319 2.95887C12.2588 2.98791 12.2071 3.03187 12.1688 3.08657L10.6189 5.29485C10.4947 5.47177 10.5375 5.71587 10.7145 5.84005Z" fill="white"/>
<path d="M20 5.60308C20 5.3869 19.8248 5.21167 19.6086 5.21167H17.5099C17.2937 5.21167 17.1185 5.3869 17.1185 5.60308V9.22546C17.1185 9.44163 17.2937 9.61687 17.5099 9.61687C17.7261 9.61687 17.9013 9.44163 17.9013 9.22546V5.99448H19.2172V17.2112H17.9013V12.7251C17.9013 12.509 17.7261 12.3337 17.5099 12.3337C17.2937 12.3337 17.1185 12.509 17.1185 12.7251V17.2111H16.2293V9.6655C16.2293 9.44933 16.0541 9.27409 15.8379 9.27409H13.7391C13.523 9.27409 13.3477 9.44933 13.3477 9.6655V17.2112H12.4633V7.37397C12.4633 7.1578 12.288 6.98257 12.0719 6.98257H9.97312C9.75699 6.98257 9.58172 7.1578 9.58172 7.37397V10.5118C8.57992 9.35882 7.10355 8.62862 5.4598 8.62862C2.4493 8.62862 0 11.0779 0 14.0885C0 17.0991 2.4493 19.5484 5.45988 19.5484C6.94129 19.5484 8.28652 18.9551 9.27117 17.9939H19.6086C19.8247 17.9939 20 17.8187 20 17.6025C20 17.5885 19.9992 17.5746 19.9977 17.5609C19.9992 17.5473 20 17.5334 20 17.5193V5.60308ZM14.1305 10.0569H15.4465V17.2112H14.1305V10.0569ZM10.3646 7.76538H11.6805V17.2112H9.93606C10.5557 16.3257 10.9198 15.2489 10.9198 14.0885C10.9198 13.229 10.7199 12.4155 10.3646 11.6914V7.76538H10.3646ZM5.85129 18.7491V18.1042C5.85129 17.888 5.67605 17.7128 5.45988 17.7128C5.24371 17.7128 5.06848 17.888 5.06848 18.1042V18.7491C2.80109 18.5603 0.988047 16.7473 0.799297 14.4799H1.44418C1.66031 14.4799 1.83559 14.3047 1.83559 14.0885C1.83559 13.8723 1.66035 13.6971 1.44418 13.6971H0.799297C0.988047 11.4297 2.80109 9.61667 5.06848 9.42792V10.0728C5.06848 10.289 5.24371 10.4642 5.45988 10.4642C5.67605 10.4642 5.85129 10.289 5.85129 10.0728V9.42792C8.11871 9.61667 9.93172 11.4297 10.1205 13.6971H9.47559C9.25945 13.6971 9.08418 13.8723 9.08418 14.0885C9.08418 14.3047 9.25941 14.4799 9.47559 14.4799H10.1205C9.93172 16.7473 8.11867 18.5603 5.85129 18.7491Z" fill="white"/>
<path d="M7.41992 13.6971H5.85117V11.7752C5.85117 11.559 5.67594 11.3838 5.45977 11.3838C5.24359 11.3838 5.06836 11.559 5.06836 11.7752V14.0886C5.06836 14.3047 5.24359 14.48 5.45977 14.48H7.41988C7.63602 14.48 7.81129 14.3047 7.81129 14.0886C7.81129 13.8724 7.63605 13.6971 7.41992 13.6971Z" fill="white"/>
</g>
<defs>
<clipPath id="clip0_1027_1219">
<rect width="20" height="20" fill="white"/>
</clipPath>
</defs>
</svg>
