<svg width="24" height="24" viewBox="0 0 24 24" fill="none" xmlns="http://www.w3.org/2000/svg">
<path fill-rule="evenodd" clip-rule="evenodd" d="M0.09375 19.5469C0.09375 20.5695 0.922706 21.3984 1.94531 21.3984H22.0546C23.0772 21.3984 23.9062 20.5695 23.9062 19.5469V19.1101C23.9062 18.9677 23.7908 18.8522 23.6484 18.8522C23.506 18.8522 23.3906 18.9677 23.3906 19.1101V19.5469C23.3906 20.2847 22.7925 20.8828 22.0546 20.8828H1.94531C1.20748 20.8828 0.609375 20.2847 0.609375 19.5469V10.4851C0.609375 10.3427 0.493948 10.2273 0.351562 10.2273C0.209177 10.2273 0.09375 10.3427 0.09375 10.4851V19.5469Z" fill="white"/>
<path fill-rule="evenodd" clip-rule="evenodd" d="M23.6484 17.8591C23.7908 17.8591 23.9062 17.7437 23.9062 17.6013V6.60944C23.9062 6.46706 23.7908 6.35163 23.6484 6.35163H0.351562C0.209177 6.35163 0.09375 6.46706 0.09375 6.60944V8.97583C0.09375 9.11821 0.209177 9.23364 0.351562 9.23364C0.493948 9.23364 0.609375 9.11821 0.609375 8.97583V6.86726H23.3906V17.6013C23.3906 17.7437 23.506 17.8591 23.6484 17.8591Z" fill="white"/>
<path fill-rule="evenodd" clip-rule="evenodd" d="M0.09375 6.6095C0.09375 6.75188 0.209177 6.86731 0.351562 6.86731H23.6484C23.7908 6.86731 23.9062 6.75188 23.9062 6.6095V4.45325C23.9062 3.4307 23.0772 2.6017 22.0546 2.6017H21.0069C20.8645 2.6017 20.7491 2.71712 20.7491 2.85951C20.7491 3.00189 20.8645 3.11732 21.0069 3.11732H22.0546C22.7924 3.11732 23.3906 3.71547 23.3906 4.45325V6.35168H0.609375V4.45325C0.609375 3.71547 1.20748 3.11732 1.94531 3.11732H19.4894C19.6318 3.11732 19.7473 3.00189 19.7473 2.85951C19.7473 2.71712 19.6318 2.6017 19.4894 2.6017H1.94531C0.922701 2.6017 0.09375 3.4307 0.09375 4.45325V6.6095Z" fill="white"/>
<path fill-rule="evenodd" clip-rule="evenodd" d="M1.99219 4.71912C1.99219 5.27575 2.44344 5.72693 3 5.72693C3.55656 5.72693 4.00781 5.27575 4.00781 4.71912C4.00781 4.16255 3.55657 3.71131 3 3.71131C2.44343 3.71131 1.99219 4.16255 1.99219 4.71912ZM3 5.2113C2.72819 5.2113 2.50781 4.99096 2.50781 4.71912C2.50781 4.44732 2.7282 4.22693 3 4.22693C3.2718 4.22693 3.49218 4.44732 3.49218 4.71912C3.49218 4.99096 3.27181 5.2113 3 5.2113Z" fill="white"/>
<path fill-rule="evenodd" clip-rule="evenodd" d="M4.66406 4.71912C4.66406 5.27575 5.11531 5.72693 5.67187 5.72693C6.22843 5.72693 6.67968 5.27575 6.67968 4.71912C6.67968 4.16255 6.22845 3.71131 5.67187 3.71131C5.1153 3.71131 4.66406 4.16255 4.66406 4.71912ZM5.67187 5.2113C5.40006 5.2113 5.17969 4.99096 5.17969 4.71912C5.17969 4.44732 5.40007 4.22693 5.67187 4.22693C5.94367 4.22693 6.16406 4.44732 6.16406 4.71912C6.16406 4.99096 5.94368 5.2113 5.67187 5.2113Z" fill="white"/>
<path fill-rule="evenodd" clip-rule="evenodd" d="M7.33594 4.71912C7.33594 5.27575 7.78719 5.72693 8.34375 5.72693C8.90031 5.72693 9.35156 5.27575 9.35156 4.71912C9.35156 4.16255 8.90032 3.71131 8.34375 3.71131C7.78718 3.71131 7.33594 4.16255 7.33594 4.71912ZM8.34375 5.2113C8.07194 5.2113 7.85156 4.99096 7.85156 4.71912C7.85156 4.44732 8.07195 4.22693 8.34375 4.22693C8.61555 4.22693 8.83593 4.44732 8.83593 4.71912C8.83593 4.99096 8.61556 5.2113 8.34375 5.2113Z" fill="white"/>
<path fill-rule="evenodd" clip-rule="evenodd" d="M6.11719 14.3439C6.11719 14.4863 6.23261 14.6017 6.375 14.6017H17.625C17.7674 14.6017 17.8828 14.4863 17.8828 14.3439V10.8447C17.8828 10.7023 17.7674 10.5869 17.625 10.5869H16.0078V7.78139C16.0078 7.63901 15.8924 7.52358 15.75 7.52358H13.875C13.7326 7.52358 13.6172 7.63901 13.6172 7.78139V9.79799H12.2578V8.9759C12.2578 8.83352 12.1424 8.71809 12 8.71809H10.125C9.9826 8.71809 9.86718 8.83352 9.86718 8.9759V11.4021H8.50781V10.5728C8.50781 10.4304 8.39238 10.315 8.24999 10.315H6.375C6.23261 10.315 6.11719 10.4304 6.11719 10.5728V14.3439ZM8.50781 11.9177H9.86718V14.0861H8.50781V11.9177ZM7.99218 14.0861H6.63281V10.8306H7.99218V14.0861ZM10.3828 14.0861V9.23372H11.7422V14.0861H10.3828ZM12.2578 14.0861V10.3136H13.6172V14.0861H12.2578ZM14.1328 14.0861V8.0392H15.4922V14.0861H14.1328ZM16.0078 14.0861V11.1025H17.3672V14.0861H16.0078Z" fill="white"/>
<path fill-rule="evenodd" clip-rule="evenodd" d="M4.71094 14.3439C4.71094 14.4863 4.82636 14.6017 4.96875 14.6017H19.0312C19.1736 14.6017 19.289 14.4863 19.289 14.3439C19.289 14.2015 19.1736 14.0861 19.0312 14.0861H4.96875C4.82636 14.0861 4.71094 14.2015 4.71094 14.3439Z" fill="white"/>
<path fill-rule="evenodd" clip-rule="evenodd" d="M6.61263 18.2687C6.65821 18.4036 6.80451 18.476 6.9394 18.4305L12.0103 16.7172C12.1452 16.6716 12.2176 16.5253 12.1721 16.3904C12.1265 16.2555 11.9802 16.1831 11.8453 16.2287L6.77436 17.942C6.63946 17.9875 6.56706 18.1338 6.61263 18.2687Z" fill="white"/>
<path fill-rule="evenodd" clip-rule="evenodd" d="M17.3735 17.3031C17.4049 17.1642 17.3178 17.0262 17.1789 16.9948L13.427 16.1468C13.2881 16.1155 13.1501 16.2026 13.1187 16.3415C13.0873 16.4804 13.1745 16.6184 13.3133 16.6498L17.0652 17.4978C17.2041 17.5291 17.3421 17.442 17.3735 17.3031Z" fill="white"/>
<path fill-rule="evenodd" clip-rule="evenodd" d="M16.8461 17.412C16.8461 17.9686 17.2973 18.4198 17.8539 18.4198C18.4104 18.4198 18.8617 17.9686 18.8617 17.412C18.8617 16.8554 18.4105 16.4042 17.8539 16.4042C17.2973 16.4042 16.8461 16.8554 16.8461 17.412ZM17.8539 17.9042C17.5821 17.9042 17.3617 17.6838 17.3617 17.412C17.3617 17.1402 17.5821 16.9198 17.8539 16.9198C18.1257 16.9198 18.3461 17.1402 18.3461 17.412C18.3461 17.6838 18.1257 17.9042 17.8539 17.9042Z" fill="white"/>
<path fill-rule="evenodd" clip-rule="evenodd" d="M11.6305 16.2327C11.6305 16.7893 12.0817 17.2405 12.6383 17.2405C13.1949 17.2405 13.6461 16.7893 13.6461 16.2327C13.6461 15.6761 13.1949 15.2249 12.6383 15.2249C12.0817 15.2249 11.6305 15.6761 11.6305 16.2327ZM12.6383 16.7249C12.3665 16.7249 12.1461 16.5045 12.1461 16.2327C12.1461 15.9609 12.3665 15.7405 12.6383 15.7405C12.9101 15.7405 13.1305 15.9609 13.1305 16.2327C13.1305 16.5045 12.9101 16.7249 12.6383 16.7249Z" fill="white"/>
<path fill-rule="evenodd" clip-rule="evenodd" d="M5.13831 18.426C5.13831 18.9827 5.58955 19.4338 6.14612 19.4338C6.70268 19.4338 7.15393 18.9827 7.15393 18.426C7.15393 17.8695 6.70269 17.4182 6.14612 17.4182C5.58954 17.4182 5.13831 17.8695 5.13831 18.426ZM6.14612 18.9182C5.87431 18.9182 5.65393 18.6979 5.65393 18.426C5.65393 18.1542 5.87432 17.9338 6.14612 17.9338C6.41792 17.9338 6.6383 18.1542 6.6383 18.426C6.6383 18.6979 6.41793 18.9182 6.14612 18.9182Z" fill="white"/>
</svg>
