<svg width="24" height="24" viewBox="0 0 24 24" fill="none" xmlns="http://www.w3.org/2000/svg">
<g clip-path="url(#clip0_1027_496)">
<path d="M6.9152 10.2518H22.3598C22.575 10.2518 22.7882 10.2942 22.987 10.3768C23.1858 10.4594 23.3663 10.5805 23.5181 10.7331V10.736C23.6705 10.8874 23.7915 11.0674 23.8741 11.2657C23.9568 11.464 23.9994 11.6767 23.9996 11.8915V22.3598C23.9996 22.8098 23.8148 23.2212 23.5181 23.5178C23.3664 23.6705 23.1859 23.7917 22.9871 23.8743C22.7883 23.957 22.5751 23.9995 22.3598 23.9993H6.9152C6.69997 23.9992 6.48687 23.9566 6.28813 23.874C6.08938 23.7914 5.9089 23.6703 5.75701 23.5178C5.60436 23.3661 5.48323 23.1857 5.40059 22.9869C5.31795 22.7882 5.27544 22.5751 5.27551 22.3598V11.8915C5.27551 11.4413 5.4602 11.03 5.75701 10.7331C5.90897 10.5808 6.08947 10.4598 6.2882 10.3772C6.48693 10.2946 6.69999 10.252 6.9152 10.2518ZM22.3598 11.0015H6.9152C6.79851 11.0017 6.68302 11.0251 6.57538 11.0702C6.46775 11.1153 6.37008 11.1812 6.28801 11.2641C6.20501 11.3462 6.13905 11.4439 6.09394 11.5516C6.04882 11.6593 6.02544 11.7748 6.02514 11.8915V22.3598C6.02514 22.6045 6.12658 22.8282 6.28801 22.9896C6.37024 23.0722 6.46799 23.1377 6.57563 23.1823C6.68327 23.227 6.79867 23.2499 6.9152 23.2497H22.3598C22.4767 23.2499 22.5925 23.227 22.7006 23.1824C22.8086 23.1377 22.9068 23.0723 22.9896 22.9896C23.0722 22.9069 23.1378 22.8087 23.1824 22.7006C23.2271 22.5926 23.2501 22.4768 23.25 22.3598V11.8915C23.2502 11.7746 23.2272 11.6587 23.1825 11.5507C23.1378 11.4426 23.0723 11.3444 22.9896 11.2617V11.2643C22.8228 11.0967 22.5962 11.0021 22.3598 11.0015Z" fill="white"/>
<path d="M11.5065 7.1261H17.7713C18.1279 7.1261 18.4556 7.27179 18.69 7.5086C18.9242 7.74541 19.0727 8.07091 19.0727 8.42735V11.0013H16.7408V9.40872H12.5372V11.0015H10.2051V8.42735C10.2051 8.25645 10.2387 8.08723 10.3041 7.92934C10.3696 7.77145 10.4654 7.62799 10.5863 7.50716C10.7071 7.38633 10.8506 7.29048 11.0085 7.2251C11.1664 7.15971 11.3356 7.12607 11.5065 7.1261ZM17.7711 7.87572H11.5065C11.3554 7.87572 11.2176 7.93797 11.116 8.0396C11.013 8.14243 10.9551 8.28187 10.9549 8.42735V10.2517H11.7876V8.6591H17.4904V10.2519H18.3231V8.42754C18.3231 8.27641 18.2606 8.1386 18.1618 8.03979H18.159C18.1086 7.98786 18.0483 7.94658 17.9817 7.9184C17.9151 7.89022 17.8434 7.87571 17.7711 7.87572Z" fill="white"/>
<path d="M4.14075 20.3428C4.34644 20.3428 4.51556 20.5091 4.51556 20.7174C4.51507 20.8167 4.47542 20.9117 4.40523 20.9819C4.33504 21.052 4.23999 21.0916 4.14075 21.0921H1.12444C0.817313 21.0921 0.53625 20.9646 0.330563 20.7617V20.7591C0.225933 20.655 0.142873 20.5313 0.0861482 20.3951C0.0294229 20.2588 0.000147295 20.1128 0 19.9652L0 1.12425C0 0.817125 0.1275 0.536062 0.330563 0.330563C0.434613 0.225916 0.558304 0.142846 0.694538 0.0861195C0.830771 0.0293931 0.976866 0.000126797 1.12444 0L11.6678 0C11.8292 0 11.9801 0.0313125 12.1209 0.09375C12.2622 0.158905 12.3894 0.250782 12.4957 0.364312L15.3249 3.39131C15.3326 3.39919 15.3379 3.40687 15.3458 3.41475C15.4323 3.51217 15.5009 3.62407 15.5486 3.74531C15.5968 3.8753 15.6215 4.01281 15.6216 4.15144V5.98894C15.6215 6.08833 15.582 6.18363 15.5117 6.25391C15.4414 6.3242 15.3461 6.3637 15.2467 6.36375C15.1973 6.364 15.1484 6.35449 15.1026 6.33577C15.0569 6.31706 15.0153 6.2895 14.9802 6.25468C14.9452 6.21986 14.9173 6.17846 14.8983 6.13286C14.8793 6.08726 14.8694 6.03835 14.8693 5.98894V4.15144C14.8693 4.09931 14.8643 4.05263 14.8485 4.01081C14.8329 3.97673 14.8138 3.94442 14.7913 3.91444C14.7861 3.90938 14.7806 3.90675 14.7756 3.9015L11.949 0.8745C11.9117 0.834914 11.8676 0.802281 11.8189 0.778125C11.771 0.758703 11.7196 0.749015 11.6679 0.749625H1.12444C1.07533 0.749574 1.02673 0.759465 0.98155 0.778703C0.936371 0.797941 0.895555 0.826127 0.861562 0.861562L0.858938 0.858938C0.79125 0.926437 0.749625 1.02281 0.749625 1.12425V19.9652C0.749625 20.0693 0.79125 20.163 0.858938 20.2307L0.861562 20.2333C0.92925 20.2986 1.02281 20.3428 1.12444 20.3428H4.14075Z" fill="white"/>
<path d="M13.2789 17.0841L6.84766 15.8631C6.41303 15.7825 6.01197 15.5926 5.72341 15.3036C5.44722 15.0278 5.27547 14.6661 5.27547 14.2313H6.02509C6.02509 14.4526 6.11378 14.6348 6.25422 14.7754C6.43384 14.9523 6.69672 15.0747 6.98566 15.1293L13.4169 16.3499L13.2789 17.0841ZM23.9994 14.2313C23.9994 14.6659 23.8277 15.0252 23.5517 15.301V15.3036C23.2627 15.5926 22.862 15.7827 22.43 15.8631L15.9986 17.0943L15.8582 16.3604L22.2894 15.1293C22.581 15.0721 22.8438 14.9524 23.0233 14.7754C23.0958 14.7047 23.1533 14.6201 23.1922 14.5266C23.2311 14.4331 23.2507 14.3326 23.2498 14.2313H23.9994ZM9.55178 3.34939C9.75991 3.34939 9.92659 3.51607 9.92659 3.7242C9.92654 3.82359 9.88704 3.9189 9.81676 3.98918C9.74648 4.05946 9.65117 4.09896 9.55178 4.09901H4.32053C4.27031 4.1006 4.22029 4.09208 4.17342 4.07396C4.12656 4.05584 4.08382 4.02849 4.04774 3.99352C4.01165 3.95856 3.98296 3.91671 3.96336 3.87044C3.94377 3.82417 3.93367 3.77444 3.93367 3.7242C3.93367 3.67396 3.94377 3.62422 3.96336 3.57796C3.98296 3.53169 4.01165 3.48984 4.04774 3.45487C4.08382 3.41991 4.12656 3.39256 4.17342 3.37444C4.22029 3.35632 4.27031 3.3478 4.32053 3.34939H9.55178ZM2.53478 3.34939C2.74309 3.34939 2.91241 3.51607 2.91241 3.7242C2.91181 3.82391 2.87175 3.91932 2.80098 3.98957C2.73021 4.05981 2.63449 4.09916 2.53478 4.09901H2.25391C2.04803 4.09901 1.87891 3.92989 1.87891 3.7242C1.87896 3.62478 1.91849 3.52944 1.98881 3.45916C2.05913 3.38887 2.15448 3.34939 2.25391 3.34939H2.53478ZM7.08691 6.7512C7.29259 6.7512 7.46172 6.92014 7.46172 7.12601C7.46172 7.33414 7.29259 7.50064 7.08691 7.50064H4.32034C4.22347 7.49688 4.13182 7.45576 4.06461 7.3859C3.99741 7.31604 3.95986 7.22286 3.95986 7.12592C3.95986 7.02898 3.99741 6.9358 4.06461 6.86594C4.13182 6.79607 4.22347 6.75495 4.32034 6.7512H7.08691ZM2.53497 6.7512C2.74309 6.7512 2.91241 6.92014 2.91241 7.12601C2.91241 7.33414 2.74328 7.50064 2.53497 7.50064H2.25391C2.15451 7.50064 2.05919 7.46118 1.98887 7.39093C1.91856 7.32069 1.87901 7.2254 1.87891 7.12601C1.87891 6.92032 2.04803 6.7512 2.25391 6.7512H2.53497ZM9.55178 5.05151C9.75991 5.05151 9.92659 5.2182 9.92659 5.42632C9.92654 5.52572 9.88704 5.62102 9.81676 5.6913C9.74648 5.76158 9.65117 5.80109 9.55178 5.80114H4.32053C4.27031 5.80273 4.22029 5.79421 4.17342 5.77608C4.12656 5.75796 4.08382 5.73061 4.04774 5.69565C4.01165 5.66069 3.98296 5.61883 3.96336 5.57257C3.94377 5.5263 3.93367 5.47657 3.93367 5.42632C3.93367 5.37608 3.94377 5.32635 3.96336 5.28008C3.98296 5.23382 4.01165 5.19196 4.04774 5.157C4.08382 5.12204 4.12656 5.09468 4.17342 5.07656C4.22029 5.05844 4.27031 5.04992 4.32053 5.05151H9.55178ZM2.53478 5.05151C2.74309 5.05151 2.91241 5.2182 2.91241 5.42632C2.91176 5.52602 2.87168 5.62141 2.80092 5.69164C2.73016 5.76187 2.63448 5.80124 2.53478 5.80114H2.25391C2.04803 5.80114 1.87891 5.63201 1.87891 5.42632C1.87896 5.3269 1.91849 5.23157 1.98881 5.16128C2.05913 5.09099 2.15448 5.05151 2.25391 5.05151H2.53478ZM12.053 0.137699L15.465 3.84139C15.5319 3.91454 15.567 4.01128 15.5626 4.11033C15.5582 4.20939 15.5147 4.30264 15.4415 4.36957C15.3729 4.43316 15.2827 4.46851 15.1892 4.46857H12.839C12.6484 4.4685 12.4597 4.43076 12.2837 4.35752C12.1077 4.28429 11.948 4.177 11.8136 4.04182L11.7902 4.01839C11.5311 3.74911 11.3864 3.38989 11.3867 3.0162V0.374699C11.3867 0.275276 11.4262 0.179941 11.4966 0.109655C11.5669 0.0393698 11.6622 -0.000113294 11.7617 -0.000113281C11.8785 -0.000113281 11.9827 0.0544492 12.053 0.137699ZM14.3357 3.71914L12.1363 1.33489V3.01639C12.136 3.1952 12.204 3.36737 12.3264 3.4977L12.3422 3.51345C12.4074 3.57867 12.4849 3.6304 12.5701 3.66566C12.6554 3.70092 12.7468 3.71903 12.839 3.71895L14.3357 3.71914ZM17.0424 2.01945C17.0327 2.06765 17.0135 2.11343 16.9859 2.15414C16.9583 2.19484 16.9229 2.22965 16.8818 2.25654C16.8406 2.28343 16.7945 2.30186 16.7461 2.31076C16.6978 2.31966 16.6481 2.31886 16.6001 2.30839C16.552 2.29865 16.5064 2.27955 16.4657 2.25216C16.4251 2.22477 16.3902 2.18964 16.3631 2.14877C16.336 2.10791 16.3173 2.0621 16.3079 2.01398C16.2986 1.96586 16.2988 1.91636 16.3085 1.86832L16.4518 1.18639L16.6391 0.298949C16.6565 0.214477 16.7025 0.138592 16.7694 0.0840576C16.8362 0.0295231 16.9198 -0.000332855 17.006 -0.000488281H18.3178C18.5077 -0.000488281 18.6641 0.140137 18.69 0.324824L18.9658 1.63657C19.1583 1.69132 19.3458 1.75639 19.5279 1.83176C19.7128 1.90732 19.8922 1.99582 20.064 2.0922L21.2118 1.34257C21.2835 1.2964 21.3687 1.27614 21.4535 1.28514C21.5382 1.29415 21.6173 1.33188 21.6776 1.39207H21.6804L22.1437 1.85539C22.1488 1.86326 22.1567 1.86851 22.1621 1.8762L22.607 2.32132C22.737 2.44882 22.7503 2.65189 22.6488 2.79757L21.9069 3.93476C22.0054 4.10798 22.0932 4.28706 22.1698 4.47101C22.2427 4.65307 22.3078 4.84057 22.3623 5.03314L23.7002 5.31682C23.7882 5.33403 23.867 5.38251 23.922 5.4533C23.9771 5.52409 24.0046 5.61242 23.9996 5.70195V6.99326C23.9996 7.1832 23.8592 7.34201 23.6743 7.36545L22.3625 7.64126C22.3089 7.8321 22.2447 8.01978 22.17 8.20339C22.0626 8.46239 21.9329 8.71152 21.7822 8.94795C21.7562 8.98995 21.722 9.02634 21.6818 9.05502C21.6415 9.08369 21.596 9.10406 21.5478 9.11495C21.4996 9.12584 21.4497 9.12703 21.401 9.11844C21.3524 9.10986 21.3059 9.09167 21.2643 9.06495C21.1805 9.01141 21.1213 8.92677 21.0998 8.82963C21.0784 8.73249 21.0963 8.63079 21.1498 8.54689C21.4011 8.15207 21.5833 7.71736 21.6887 7.26139C21.701 7.18721 21.7355 7.11849 21.7875 7.06418C21.8395 7.00986 21.9067 6.97247 21.9802 6.95689L23.25 6.69139V6.33739H23.2526V5.98601L21.9798 5.71789C21.9096 5.70321 21.845 5.66868 21.7938 5.61839C21.7426 5.56811 21.7069 5.50418 21.6909 5.4342C21.6404 5.20272 21.5689 4.97629 21.4775 4.7577C21.3865 4.5387 21.2767 4.32798 21.1494 4.12789C21.1116 4.06728 21.0918 3.99719 21.0922 3.92576C21.0927 3.85433 21.1134 3.7845 21.152 3.72439L21.8628 2.63651L21.6335 2.40495C21.6258 2.39989 21.6208 2.39445 21.6127 2.38657L21.363 2.13682L20.2983 2.8317C20.2377 2.87821 20.1643 2.90491 20.0879 2.90816C20.0116 2.91142 19.9361 2.89107 19.8718 2.84989C19.6716 2.72274 19.4609 2.61303 19.242 2.52195C19.0286 2.43374 18.8084 2.36325 18.5835 2.3112C18.5094 2.29915 18.4409 2.26477 18.3869 2.21266C18.333 2.16055 18.2962 2.09321 18.2816 2.01964L18.0131 0.749324H17.3077L17.1855 1.33751L17.0424 2.01945ZM17.6619 4.01576C17.4536 4.01576 17.2869 3.84907 17.2869 3.64095C17.2869 3.43282 17.4536 3.26614 17.6619 3.26614C18.5102 3.26614 19.278 3.60982 19.835 4.1667C20.1203 4.45155 20.3465 4.78995 20.5005 5.16246C20.6546 5.53498 20.7336 5.93426 20.733 6.33739C20.7335 6.55792 20.7099 6.77785 20.6627 6.99326C20.6156 7.20822 20.5459 7.41757 20.4547 7.61782C20.4132 7.7082 20.3375 7.77842 20.2443 7.81308C20.1511 7.84773 20.0479 7.844 19.9575 7.8027C19.913 7.78221 19.873 7.75315 19.8398 7.71719C19.8066 7.68124 19.7808 7.63908 19.7639 7.59314C19.747 7.5472 19.7393 7.49837 19.7413 7.44946C19.7432 7.40054 19.7548 7.3525 19.7754 7.30807C19.8429 7.16239 19.895 7.00357 19.9314 6.83689C19.9653 6.67564 19.9835 6.50895 19.9835 6.3372C19.9835 5.69689 19.7233 5.11639 19.3042 4.69489C18.8683 4.26003 18.2777 4.01581 17.6619 4.01576Z" fill="white"/>
<path d="M13.4014 14.2421H15.8764C16.0718 14.2421 16.2486 14.3227 16.3763 14.45L16.3789 14.4526C16.512 14.586 16.5868 14.7667 16.5871 14.9551V17.6984C16.5871 18.2345 16.3686 18.7213 16.0144 19.0751C15.6632 19.4293 15.1739 19.6479 14.6376 19.6479C14.1014 19.6479 13.6146 19.4293 13.2608 19.0751C12.9092 18.7213 12.688 18.2347 12.688 17.6984V14.9551C12.688 14.7599 12.7688 14.5801 12.8989 14.4526V14.45C13.0327 14.3175 13.2131 14.2428 13.4014 14.2421ZM15.8376 14.9917H13.4404V17.6984C13.4401 17.8557 13.471 18.0114 13.5313 18.1566C13.5917 18.3019 13.6802 18.4337 13.7918 18.5444C13.9025 18.6562 14.0343 18.745 14.1794 18.8057C14.3246 18.8664 14.4803 18.8979 14.6376 18.8983C14.7954 18.8982 14.9516 18.8669 15.0972 18.8061C15.2428 18.7454 15.375 18.6565 15.4861 18.5444C15.7105 18.3201 15.837 18.0158 15.8376 17.6984V14.9917Z" fill="white"/>
<path d="M14.6374 18.0236C14.8444 18.0236 15.0122 17.8557 15.0122 17.6487C15.0122 17.4417 14.8444 17.2739 14.6374 17.2739C14.4304 17.2739 14.2626 17.4417 14.2626 17.6487C14.2626 17.8557 14.4304 18.0236 14.6374 18.0236Z" fill="white"/>
</g>
<defs>
<clipPath id="clip0_1027_496">
<rect width="24" height="24" fill="white"/>
</clipPath>
</defs>
</svg>
